<svg width="144" height="130" viewBox="0 0 144 130" fill="none" xmlns="http://www.w3.org/2000/svg">
<g filter="url(#filter0_d_4880_168)">
<path d="M30.8673 84.5378C77.055 150.737 -9.13886 51.2589 14.0382 26.6478C37.2153 2.0368 96.1015 6.39352 119.808 28.7187C143.514 51.0439 132.697 70.9345 109.52 95.5455C86.3427 120.157 55.783 138.924 30.8673 84.5378Z" fill="#FF9E81"/>
<path d="M28.6612 65.0676C27.8399 65.0676 27.1039 64.9342 26.4532 64.6676C25.8025 64.4009 25.2799 64.0062 24.8852 63.4836C24.5012 62.9609 24.2985 62.3316 24.2772 61.5956H27.1892C27.2319 62.0116 27.3759 62.3316 27.6212 62.5556C27.8665 62.7689 28.1865 62.8756 28.5812 62.8756C28.9865 62.8756 29.3065 62.7849 29.5412 62.6036C29.7759 62.4116 29.8932 62.1502 29.8932 61.8196C29.8932 61.5422 29.7972 61.3129 29.6052 61.1316C29.4239 60.9502 29.1945 60.8009 28.9172 60.6836C28.6505 60.5662 28.2665 60.4329 27.7652 60.2836C27.0399 60.0596 26.4479 59.8356 25.9892 59.6116C25.5305 59.3876 25.1359 59.0569 24.8052 58.6196C24.4745 58.1822 24.3092 57.6116 24.3092 56.9076C24.3092 55.8622 24.6879 55.0462 25.4452 54.4596C26.2025 53.8622 27.1892 53.5636 28.4052 53.5636C29.6425 53.5636 30.6399 53.8622 31.3972 54.4596C32.1545 55.0462 32.5599 55.8676 32.6132 56.9236H29.6532C29.6319 56.5609 29.4985 56.2782 29.2532 56.0756C29.0079 55.8622 28.6932 55.7556 28.3092 55.7556C27.9785 55.7556 27.7119 55.8462 27.5092 56.0276C27.3065 56.1982 27.2052 56.4489 27.2052 56.7796C27.2052 57.1422 27.3759 57.4249 27.7172 57.6276C28.0585 57.8302 28.5919 58.0489 29.3172 58.2836C30.0425 58.5289 30.6292 58.7636 31.0772 58.9876C31.5359 59.2116 31.9305 59.5369 32.2612 59.9636C32.5919 60.3902 32.7572 60.9396 32.7572 61.6116C32.7572 62.2516 32.5919 62.8329 32.2612 63.3556C31.9412 63.8782 31.4719 64.2942 30.8532 64.6036C30.2345 64.9129 29.5039 65.0676 28.6612 65.0676ZM46.7769 56.0276L44.3609 64.9556H41.3369L39.9289 59.1636L38.4729 64.9556H35.4649L33.0329 56.0276H35.7689L37.0329 62.4116L38.5369 56.0276H41.4329L42.9529 62.3796L44.2009 56.0276H46.7769ZM48.7163 55.0996C48.2363 55.0996 47.8416 54.9609 47.5323 54.6836C47.2336 54.3956 47.0843 54.0436 47.0843 53.6276C47.0843 53.2009 47.2336 52.8489 47.5323 52.5716C47.8416 52.2836 48.2363 52.1396 48.7163 52.1396C49.1856 52.1396 49.5696 52.2836 49.8683 52.5716C50.1776 52.8489 50.3323 53.2009 50.3323 53.6276C50.3323 54.0436 50.1776 54.3956 49.8683 54.6836C49.5696 54.9609 49.1856 55.0996 48.7163 55.0996ZM50.0763 56.0276V64.9556H47.3403V56.0276H50.0763ZM56.5551 62.6356V64.9556H55.1631C54.1711 64.9556 53.3977 64.7156 52.8431 64.2356C52.2884 63.7449 52.0111 62.9502 52.0111 61.8516V58.2996H50.9231V56.0276H52.0111V53.8516H54.7471V56.0276H56.5391V58.2996H54.7471V61.8836C54.7471 62.1502 54.8111 62.3422 54.9391 62.4596C55.0671 62.5769 55.2804 62.6356 55.5791 62.6356H56.5551ZM57.0551 60.4916C57.0551 59.5636 57.2417 58.7529 57.6151 58.0596C57.9991 57.3662 58.5271 56.8329 59.1991 56.4596C59.8817 56.0862 60.6604 55.8996 61.5351 55.8996C62.6551 55.8996 63.5884 56.1929 64.3351 56.7796C65.0924 57.3662 65.5884 58.1929 65.8231 59.2596H62.9111C62.6657 58.5769 62.1911 58.2356 61.4871 58.2356C60.9857 58.2356 60.5857 58.4329 60.2871 58.8276C59.9884 59.2116 59.8391 59.7662 59.8391 60.4916C59.8391 61.2169 59.9884 61.7769 60.2871 62.1716C60.5857 62.5556 60.9857 62.7476 61.4871 62.7476C62.1911 62.7476 62.6657 62.4062 62.9111 61.7236H65.8231C65.5884 62.7689 65.0924 63.5902 64.3351 64.1876C63.5777 64.7849 62.6444 65.0836 61.5351 65.0836C60.6604 65.0836 59.8817 64.8969 59.1991 64.5236C58.5271 64.1502 57.9991 63.6169 57.6151 62.9236C57.2417 62.2302 57.0551 61.4196 57.0551 60.4916ZM72.2946 55.9316C73.3186 55.9316 74.1399 56.2729 74.7586 56.9556C75.3772 57.6276 75.6866 58.5556 75.6866 59.7396V64.9556H72.9666V60.1076C72.9666 59.5102 72.8119 59.0462 72.5026 58.7156C72.1932 58.3849 71.7772 58.2196 71.2546 58.2196C70.7319 58.2196 70.3159 58.3849 70.0066 58.7156C69.6972 59.0462 69.5426 59.5102 69.5426 60.1076V64.9556H66.8066V53.1156H69.5426V57.2276C69.8199 56.8329 70.1986 56.5182 70.6786 56.2836C71.1586 56.0489 71.6972 55.9316 72.2946 55.9316ZM84.4198 53.7236V55.9156H79.8438V58.2836H83.2678V60.4116H79.8438V64.9556H77.1078V53.7236H84.4198ZM89.4418 65.0836C88.5671 65.0836 87.7778 64.8969 87.0738 64.5236C86.3805 64.1502 85.8311 63.6169 85.4258 62.9236C85.0311 62.2302 84.8338 61.4196 84.8338 60.4916C84.8338 59.5742 85.0365 58.7689 85.4418 58.0756C85.8471 57.3716 86.4018 56.8329 87.1058 56.4596C87.8098 56.0862 88.5991 55.8996 89.4738 55.8996C90.3485 55.8996 91.1378 56.0862 91.8418 56.4596C92.5458 56.8329 93.1005 57.3716 93.5058 58.0756C93.9111 58.7689 94.1138 59.5742 94.1138 60.4916C94.1138 61.4089 93.9058 62.2196 93.4898 62.9236C93.0845 63.6169 92.5245 64.1502 91.8098 64.5236C91.1058 64.8969 90.3165 65.0836 89.4418 65.0836ZM89.4418 62.7156C89.9645 62.7156 90.4071 62.5236 90.7698 62.1396C91.1431 61.7556 91.3298 61.2062 91.3298 60.4916C91.3298 59.7769 91.1485 59.2276 90.7858 58.8436C90.4338 58.4596 89.9965 58.2676 89.4738 58.2676C88.9405 58.2676 88.4978 58.4596 88.1458 58.8436C87.7938 59.2169 87.6178 59.7662 87.6178 60.4916C87.6178 61.2062 87.7885 61.7556 88.1298 62.1396C88.4818 62.5236 88.9191 62.7156 89.4418 62.7156ZM99.1493 65.0836C98.2747 65.0836 97.4853 64.8969 96.7813 64.5236C96.088 64.1502 95.5387 63.6169 95.1333 62.9236C94.7387 62.2302 94.5413 61.4196 94.5413 60.4916C94.5413 59.5742 94.744 58.7689 95.1493 58.0756C95.5547 57.3716 96.1093 56.8329 96.8133 56.4596C97.5173 56.0862 98.3067 55.8996 99.1813 55.8996C100.056 55.8996 100.845 56.0862 101.549 56.4596C102.253 56.8329 102.808 57.3716 103.213 58.0756C103.619 58.7689 103.821 59.5742 103.821 60.4916C103.821 61.4089 103.613 62.2196 103.197 62.9236C102.792 63.6169 102.232 64.1502 101.517 64.5236C100.813 64.8969 100.024 65.0836 99.1493 65.0836ZM99.1493 62.7156C99.672 62.7156 100.115 62.5236 100.477 62.1396C100.851 61.7556 101.037 61.2062 101.037 60.4916C101.037 59.7769 100.856 59.2276 100.493 58.8436C100.141 58.4596 99.704 58.2676 99.1813 58.2676C98.648 58.2676 98.2053 58.4596 97.8533 58.8436C97.5013 59.2169 97.3253 59.7662 97.3253 60.4916C97.3253 61.2062 97.496 61.7556 97.8373 62.1396C98.1893 62.5236 98.6267 62.7156 99.1493 62.7156ZM104.249 60.4756C104.249 59.5582 104.419 58.7529 104.761 58.0596C105.113 57.3662 105.587 56.8329 106.185 56.4596C106.782 56.0862 107.449 55.8996 108.185 55.8996C108.771 55.8996 109.305 56.0222 109.785 56.2676C110.275 56.5129 110.659 56.8436 110.937 57.2596V53.1156H113.673V64.9556H110.937V63.6756C110.681 64.1022 110.313 64.4436 109.833 64.6996C109.363 64.9556 108.814 65.0836 108.185 65.0836C107.449 65.0836 106.782 64.8969 106.185 64.5236C105.587 64.1396 105.113 63.6009 104.761 62.9076C104.419 62.2036 104.249 61.3929 104.249 60.4756ZM110.937 60.4916C110.937 59.8089 110.745 59.2702 110.361 58.8756C109.987 58.4809 109.529 58.2836 108.985 58.2836C108.441 58.2836 107.977 58.4809 107.593 58.8756C107.219 59.2596 107.033 59.7929 107.033 60.4756C107.033 61.1582 107.219 61.7022 107.593 62.1076C107.977 62.5022 108.441 62.6996 108.985 62.6996C109.529 62.6996 109.987 62.5022 110.361 62.1076C110.745 61.7129 110.937 61.1742 110.937 60.4916Z" fill="black"/>
<path d="M80.1327 88.3305C80.1327 91.4243 80.1327 94.5649 80.1327 97.6587C80.1327 97.7993 80.1327 97.893 80.1327 98.0337C78.1639 98.0337 76.1952 98.0337 74.1796 98.0337C74.1327 97.893 74.1327 97.7055 74.0858 97.5649C75.0233 97.5649 75.9139 97.5649 76.8514 97.5649C76.9452 97.5649 77.0389 97.5649 77.1796 97.5649C77.2264 97.5649 77.3202 97.5649 77.3671 97.5649C77.4608 97.5649 77.5546 97.5649 77.6483 97.518C78.8202 97.2837 79.6639 96.2993 79.7108 95.0805C79.7108 95.0805 79.7108 95.0805 79.7108 95.0337C79.7108 93.3462 79.7108 91.6587 79.7108 89.9712C79.7108 89.268 79.4296 88.518 78.8671 88.0493C78.0702 87.3462 76.9452 87.2055 76.0077 87.7212C75.2108 88.143 74.7421 89.0337 74.6952 89.9243C74.6952 90.2524 74.6952 90.5805 74.6952 90.9087C74.6952 91.6118 74.6952 92.268 74.6952 92.9712C74.2264 92.9712 73.7577 92.9712 73.3358 92.9712C73.2889 92.643 73.2421 92.3618 73.1483 92.0337C73.0546 91.6118 72.6327 91.3305 72.2577 91.3305C69.5858 91.3305 66.9608 91.3305 64.2889 91.3305C63.9139 91.3305 63.4452 91.6118 63.3983 92.0337C63.3514 92.3618 63.2577 92.643 63.2108 92.9712C62.6952 92.9712 62.1796 92.9712 61.6639 92.9712C61.6639 92.268 61.6639 91.5649 61.6639 90.8618C61.6639 90.4868 61.6639 90.0649 61.6639 89.6899C61.5233 88.4712 60.5858 87.5337 59.4139 87.4399C58.2889 87.3462 57.2577 88.0024 56.8358 89.0337C56.6483 89.5024 56.6483 89.9243 56.6483 90.393C56.6483 91.6118 56.6483 92.8305 56.6483 94.0962C56.6483 94.4712 56.6483 94.893 56.6483 95.268C56.7889 96.5337 57.8671 97.5649 59.1327 97.5649C60.1639 97.5649 61.1952 97.5649 62.2264 97.5649C62.1796 97.7055 62.1796 97.893 62.1327 98.0337C60.1171 98.0337 58.1483 98.0337 56.1327 98.0337C56.1327 95.2212 56.1327 92.4555 56.1327 89.643C56.1327 89.2212 56.1327 88.7524 56.1327 88.3305C56.1327 87.1118 54.2577 87.1118 54.2577 88.3305C54.2577 91.4243 54.2577 94.5649 54.2577 97.6587C54.2577 98.0805 54.2577 98.5493 54.2577 98.9712C54.2577 100.424 54.2577 101.924 54.2577 103.377C54.2577 103.565 54.2577 103.799 54.2577 103.987C54.2577 104.456 54.6796 104.924 55.1952 104.924C55.7108 104.924 56.1327 104.502 56.1327 103.987C56.1327 102.627 56.1327 101.268 56.1327 99.9087C58.0077 99.9087 59.8827 99.9087 61.7577 99.9087C61.6171 100.706 61.4296 101.502 61.2889 102.299C61.1952 102.768 61.1014 103.284 61.0077 103.752C60.8671 104.362 61.2889 104.924 61.8983 104.924C62.9296 104.924 63.9608 104.924 64.9921 104.924C65.5546 104.924 66.1171 104.924 66.6796 104.924C67.2889 104.924 67.7577 104.596 68.1796 104.174C68.3671 104.315 68.5546 104.502 68.7421 104.643C69.2577 105.065 70.0077 104.924 70.6171 104.924C71.8358 104.924 73.1014 104.924 74.3202 104.924H74.3671H74.4139C74.6014 104.924 74.7889 104.831 74.8827 104.737C74.9296 104.69 74.9296 104.69 74.9764 104.643C75.1639 104.409 75.2577 104.081 75.2108 103.752C74.9764 102.487 74.7421 101.174 74.5077 99.9087C76.3827 99.9087 78.2577 99.9087 80.0858 99.9087C80.0858 101.081 80.0858 102.206 80.0858 103.377C80.0858 103.565 80.0858 103.799 80.0858 103.987C80.0858 104.456 80.5077 104.924 81.0233 104.924C81.5389 104.924 81.9608 104.502 81.9608 103.987C81.9608 102.534 81.9608 101.034 81.9608 99.5805C81.9608 99.393 81.9608 99.1587 81.9608 98.9712C81.9608 95.8774 81.9608 92.7368 81.9608 89.643C81.9608 89.2212 81.9608 88.7524 81.9608 88.3305C82.0077 87.1118 80.1327 87.1118 80.1327 88.3305ZM76.5233 91.6118C76.5233 91.143 76.5233 90.7212 76.5233 90.2524C76.5233 90.1587 76.5233 90.018 76.5233 89.9243C76.5233 89.8774 76.5233 89.8774 76.5233 89.8305C76.5233 89.8774 76.5702 89.6899 76.5702 89.6899V89.643C76.5702 89.5962 76.6171 89.5493 76.6171 89.5024C76.6171 89.5024 76.6171 89.5024 76.6171 89.4555C76.6171 89.4555 76.6639 89.4555 76.6639 89.4087C76.7108 89.3618 76.7108 89.3618 76.7108 89.3618C76.7108 89.3618 76.7108 89.3618 76.7577 89.3618C76.7577 89.3618 76.8514 89.3149 76.8983 89.3149C76.9452 89.3149 77.0389 89.268 77.0389 89.268H77.0858C77.0858 89.268 77.1327 89.268 77.1796 89.268H77.2264C77.2733 89.268 77.3202 89.3149 77.3671 89.3149C77.3671 89.3149 77.4608 89.3618 77.5077 89.4087C77.5077 89.4087 77.5546 89.4555 77.6014 89.4555L77.6952 89.5962L77.7421 89.643V89.6899C77.7421 89.6899 77.7889 89.8774 77.7889 89.8305C77.7889 89.8774 77.7889 89.9243 77.7889 90.018C77.7889 90.9087 77.7889 91.7524 77.7889 92.643C77.7889 93.4399 77.7889 94.2368 77.7889 95.0337C77.7889 95.3618 77.5077 95.643 77.1796 95.643C76.0546 95.643 74.9296 95.643 73.8046 95.643C73.7577 95.3618 73.7108 95.0805 73.6639 94.7993C74.1796 94.7993 74.7421 94.7993 75.2577 94.7993C75.3983 94.7993 75.4921 94.7993 75.6327 94.7993C75.8671 94.7993 76.1014 94.7055 76.2421 94.5649C76.4296 94.3774 76.5702 94.143 76.5702 93.8618C76.5233 93.1587 76.5233 92.4087 76.5233 91.6118ZM59.6014 95.6899C59.4608 95.6899 59.2733 95.6899 59.1327 95.6899C58.7577 95.6899 58.5233 95.4087 58.5233 95.0337C58.5233 94.7524 58.5233 94.4712 58.5233 94.143C58.5233 93.0649 58.5233 91.9399 58.5233 90.8618C58.5233 90.5337 58.5233 90.2524 58.5233 89.9243C58.5233 89.5493 58.7577 89.268 59.1327 89.268C59.5077 89.268 59.7421 89.5493 59.7421 89.9243C59.7421 90.2524 59.7421 90.6274 59.7421 90.9555C59.7421 91.9399 59.7421 92.9243 59.7421 93.9087C59.7421 94.2368 59.8827 94.4712 60.0702 94.6118C60.2108 94.7524 60.4452 94.8462 60.6796 94.8462C61.3827 94.8462 62.0858 94.8462 62.7889 94.8462C62.7421 95.1274 62.6952 95.4087 62.6014 95.6899C61.6171 95.6899 60.5858 95.6899 59.6014 95.6899ZM69.7264 103.049C69.3983 102.768 69.1171 102.534 68.7889 102.252C68.3671 101.924 67.8514 101.877 67.4764 102.252C67.1952 102.534 66.8671 102.768 66.5858 103.049C65.4139 103.049 64.2421 103.049 63.0233 103.049C63.6327 100.002 64.2421 97.0024 64.8514 93.9555C64.8983 93.6743 64.9452 93.4399 64.9921 93.1587C67.1483 93.1587 69.2577 93.1587 71.4139 93.1587C71.9764 96.3462 72.5389 99.5337 73.1483 102.721C73.1483 102.815 73.1952 102.909 73.1952 103.002C72.0233 103.049 70.8983 103.049 69.7264 103.049Z" fill="#00B378"/>
<path d="M59.1327 86.7368C60.3983 86.7368 61.4296 85.7056 61.4296 84.4399C61.4296 83.1743 60.3983 82.1431 59.1327 82.1431C57.8671 82.1431 56.8358 83.1743 56.8358 84.4399C56.8358 85.7056 57.8671 86.7368 59.1327 86.7368ZM59.1327 84.0181C59.3671 84.0181 59.5546 84.2056 59.5546 84.4399C59.5546 84.6743 59.3671 84.8618 59.1327 84.8618C58.8983 84.8618 58.7108 84.6743 58.7108 84.4399C58.7108 84.2056 58.8983 84.0181 59.1327 84.0181Z" fill="#00B378"/>
<path d="M77.1796 86.7368C78.4452 86.7368 79.4764 85.7056 79.4764 84.4399C79.4764 83.1743 78.4452 82.1431 77.1796 82.1431C75.9139 82.1431 74.8827 83.1743 74.8827 84.4399C74.8827 85.7056 75.9139 86.7368 77.1796 86.7368ZM77.1796 84.0181C77.4139 84.0181 77.6014 84.2056 77.6014 84.4399C77.6014 84.6743 77.4139 84.8618 77.1796 84.8618C76.9452 84.8618 76.7577 84.6743 76.7577 84.4399C76.7577 84.2056 76.9452 84.0181 77.1796 84.0181Z" fill="#00B378"/>
</g>
<defs>
<filter id="filter0_d_4880_168" x="-4.86731" y="-9.04443" width="152" height="148" filterUnits="userSpaceOnUse" color-interpolation-filters="sRGB">
<feFlood flood-opacity="0" result="BackgroundImageFix"/>
<feColorMatrix in="SourceAlpha" type="matrix" values="0 0 0 0 0 0 0 0 0 0 0 0 0 0 0 0 0 0 127 0" result="hardAlpha"/>
<feOffset/>
<feGaussianBlur stdDeviation="5"/>
<feComposite in2="hardAlpha" operator="out"/>
<feColorMatrix type="matrix" values="0 0 0 0 1 0 0 0 0 0.619608 0 0 0 0 0.505882 0 0 0 1 0"/>
<feBlend mode="normal" in2="BackgroundImageFix" result="effect1_dropShadow_4880_168"/>
<feBlend mode="normal" in="SourceGraphic" in2="effect1_dropShadow_4880_168" result="shape"/>
</filter>
</defs>
</svg>
