<svg width="146" height="149" viewBox="0 0 146 149" fill="none" xmlns="http://www.w3.org/2000/svg">
<g filter="url(#filter0_d_3007_105)">
<path d="M78.9132 17.8461C-6.78397 0.0209416 134.913 12.9248 135.722 52.9183C136.532 92.9118 87.915 137.921 52.7578 138.633C17.6006 139.345 10.8559 113.567 10.0463 73.5734C9.2367 33.5799 18.5358 -7.57338 78.9132 17.8461Z" fill="#C9E9B8"/>
<path d="M28.3562 101.377C27.4816 101.377 26.6442 101.254 25.8442 101.009C25.0442 100.753 24.4096 100.427 23.9402 100.033L24.6602 98.4168C25.1082 98.7688 25.6629 99.0621 26.3242 99.2968C26.9856 99.5315 27.6629 99.6488 28.3562 99.6488C28.9429 99.6488 29.4176 99.5848 29.7802 99.4568C30.1429 99.3288 30.4096 99.1581 30.5802 98.9448C30.7509 98.7208 30.8362 98.4701 30.8362 98.1928C30.8362 97.8515 30.7136 97.5795 30.4682 97.3768C30.2229 97.1635 29.9029 96.9981 29.5082 96.8808C29.1242 96.7528 28.6922 96.6355 28.2122 96.5288C27.7429 96.4221 27.2682 96.2995 26.7882 96.1608C26.3189 96.0115 25.8869 95.8248 25.4922 95.6008C25.1082 95.3661 24.7936 95.0568 24.5482 94.6728C24.3029 94.2888 24.1802 93.7981 24.1802 93.2008C24.1802 92.5928 24.3402 92.0381 24.6602 91.5368C24.9909 91.0248 25.4869 90.6195 26.1482 90.3208C26.8202 90.0115 27.6682 89.8568 28.6922 89.8568C29.3642 89.8568 30.0309 89.9421 30.6922 90.1128C31.3536 90.2835 31.9296 90.5288 32.4202 90.8488L31.7642 92.4648C31.2629 92.1661 30.7456 91.9475 30.2122 91.8088C29.6789 91.6595 29.1669 91.5848 28.6762 91.5848C28.1002 91.5848 27.6309 91.6541 27.2682 91.7928C26.9162 91.9315 26.6549 92.1128 26.4842 92.3368C26.3242 92.5608 26.2442 92.8168 26.2442 93.1048C26.2442 93.4461 26.3616 93.7235 26.5962 93.9368C26.8416 94.1395 27.1562 94.2995 27.5402 94.4168C27.9349 94.5341 28.3722 94.6515 28.8522 94.7688C29.3322 94.8755 29.8069 94.9981 30.2762 95.1368C30.7562 95.2755 31.1882 95.4568 31.5722 95.6808C31.9669 95.9048 32.2816 96.2088 32.5162 96.5928C32.7616 96.9768 32.8842 97.4621 32.8842 98.0488C32.8842 98.6461 32.7189 99.2008 32.3882 99.7128C32.0682 100.214 31.5722 100.619 30.9002 100.929C30.2282 101.227 29.3802 101.377 28.3562 101.377ZM36.0065 101.217L32.8705 92.6728H34.7585L37.4465 100.209H36.5505L39.3665 92.6728H41.0465L43.7825 100.209H42.9025L45.6705 92.6728H47.4465L44.2945 101.217H42.3745L39.8785 94.5448H40.4705L37.9265 101.217H36.0065ZM48.3416 101.217V92.6728H50.3416V101.217H48.3416ZM49.3496 91.2648C48.9763 91.2648 48.667 91.1475 48.4216 90.9128C48.187 90.6781 48.0696 90.3955 48.0696 90.0648C48.0696 89.7235 48.187 89.4408 48.4216 89.2168C48.667 88.9821 48.9763 88.8648 49.3496 88.8648C49.723 88.8648 50.027 88.9768 50.2616 89.2008C50.507 89.4141 50.6296 89.6861 50.6296 90.0168C50.6296 90.3688 50.5123 90.6675 50.2776 90.9128C50.043 91.1475 49.7336 91.2648 49.3496 91.2648ZM55.7026 101.329C54.764 101.329 54.0386 101.089 53.5266 100.609C53.0146 100.118 52.7586 99.3981 52.7586 98.4488V90.7848H54.7586V98.4008C54.7586 98.8061 54.86 99.1208 55.0626 99.3448C55.276 99.5688 55.5693 99.6808 55.9426 99.6808C56.3906 99.6808 56.764 99.5635 57.0626 99.3288L57.6226 100.753C57.388 100.945 57.1 101.089 56.7586 101.185C56.4173 101.281 56.0653 101.329 55.7026 101.329ZM51.3506 94.3368V92.7368H57.0466V94.3368H51.3506ZM62.4266 101.329C61.5306 101.329 60.7306 101.142 60.0266 100.769C59.3333 100.385 58.7893 99.8621 58.3946 99.2008C58 98.5395 57.8026 97.7875 57.8026 96.9448C57.8026 96.0915 58 95.3395 58.3946 94.6888C58.7893 94.0275 59.3333 93.5101 60.0266 93.1368C60.7306 92.7635 61.5306 92.5768 62.4266 92.5768C63.2586 92.5768 63.9893 92.7475 64.6186 93.0888C65.2586 93.4195 65.744 93.9101 66.0746 94.5608L64.5386 95.4568C64.2826 95.0515 63.968 94.7528 63.5946 94.5608C63.232 94.3688 62.8373 94.2728 62.4106 94.2728C61.92 94.2728 61.4773 94.3795 61.0826 94.5928C60.688 94.8061 60.3786 95.1155 60.1546 95.5208C59.9306 95.9155 59.8186 96.3901 59.8186 96.9448C59.8186 97.4995 59.9306 97.9795 60.1546 98.3848C60.3786 98.7795 60.688 99.0835 61.0826 99.2968C61.4773 99.5101 61.92 99.6168 62.4106 99.6168C62.8373 99.6168 63.232 99.5208 63.5946 99.3288C63.968 99.1368 64.2826 98.8381 64.5386 98.4328L66.0746 99.3288C65.744 99.9688 65.2586 100.465 64.6186 100.817C63.9893 101.158 63.2586 101.329 62.4266 101.329ZM72.0934 92.5768C72.776 92.5768 73.384 92.7101 73.9174 92.9768C74.4614 93.2435 74.888 93.6541 75.1974 94.2088C75.5067 94.7528 75.6614 95.4568 75.6614 96.3208V101.217H73.6614V96.5768C73.6614 95.8195 73.48 95.2541 73.1174 94.8808C72.7654 94.5075 72.2694 94.3208 71.6294 94.3208C71.16 94.3208 70.744 94.4168 70.3814 94.6088C70.0187 94.8008 69.736 95.0888 69.5334 95.4728C69.3414 95.8461 69.2454 96.3208 69.2454 96.8968V101.217H67.2454V89.3448H69.2454V94.9768L68.8134 94.2728C69.112 93.7288 69.544 93.3128 70.1094 93.0248C70.6854 92.7261 71.3467 92.5768 72.0934 92.5768ZM77.9105 101.217V90.0168H82.5185C83.5105 90.0168 84.3585 90.1768 85.0625 90.4968C85.7772 90.8168 86.3265 91.2755 86.7105 91.8728C87.0945 92.4701 87.2865 93.1795 87.2865 94.0008C87.2865 94.8221 87.0945 95.5315 86.7105 96.1288C86.3265 96.7261 85.7772 97.1848 85.0625 97.5048C84.3585 97.8248 83.5105 97.9848 82.5185 97.9848H79.0625L79.9905 97.0088V101.217H77.9105ZM79.9905 97.2328L79.0625 96.2248H82.4225C83.3398 96.2248 84.0278 96.0328 84.4865 95.6488C84.9558 95.2541 85.1905 94.7048 85.1905 94.0008C85.1905 93.2861 84.9558 92.7368 84.4865 92.3528C84.0278 91.9688 83.3398 91.7768 82.4225 91.7768H79.0625L79.9905 90.7528V97.2328ZM93.8775 101.217V99.4888L93.7655 99.1208V96.0968C93.7655 95.5101 93.5895 95.0568 93.2375 94.7368C92.8855 94.4061 92.3522 94.2408 91.6375 94.2408C91.1575 94.2408 90.6828 94.3155 90.2135 94.4648C89.7548 94.6141 89.3655 94.8221 89.0455 95.0888L88.2615 93.6328C88.7202 93.2808 89.2642 93.0195 89.8935 92.8488C90.5335 92.6675 91.1948 92.5768 91.8775 92.5768C93.1148 92.5768 94.0695 92.8755 94.7415 93.4728C95.4242 94.0595 95.7655 94.9715 95.7655 96.2088V101.217H93.8775ZM91.1895 101.329C90.5495 101.329 89.9895 101.222 89.5095 101.009C89.0295 100.785 88.6562 100.481 88.3895 100.097C88.1335 99.7021 88.0055 99.2595 88.0055 98.7688C88.0055 98.2888 88.1175 97.8568 88.3415 97.4728C88.5762 97.0888 88.9548 96.7848 89.4775 96.5608C90.0002 96.3368 90.6935 96.2248 91.5575 96.2248H94.0375V97.5528H91.7015C91.0188 97.5528 90.5602 97.6648 90.3255 97.8888C90.0908 98.1021 89.9735 98.3688 89.9735 98.6888C89.9735 99.0515 90.1175 99.3395 90.4055 99.5528C90.6935 99.7661 91.0935 99.8728 91.6055 99.8728C92.0962 99.8728 92.5335 99.7608 92.9175 99.5368C93.3122 99.3128 93.5948 98.9821 93.7655 98.5448L94.1015 99.7448C93.9095 100.246 93.5628 100.635 93.0615 100.913C92.5708 101.19 91.9468 101.329 91.1895 101.329ZM98.4 104.433C97.984 104.433 97.568 104.363 97.152 104.225C96.736 104.086 96.3893 103.894 96.112 103.649L96.912 102.177C97.1147 102.358 97.344 102.502 97.6 102.609C97.856 102.715 98.1173 102.769 98.384 102.769C98.7467 102.769 99.04 102.678 99.264 102.497C99.488 102.315 99.696 102.011 99.888 101.585L100.384 100.465L100.544 100.225L103.776 92.6728H105.696L101.696 101.905C101.429 102.545 101.131 103.051 100.8 103.425C100.48 103.798 100.117 104.059 99.712 104.209C99.3173 104.358 98.88 104.433 98.4 104.433ZM100.16 101.521L96.304 92.6728H98.384L101.52 100.049L100.16 101.521Z" fill="black"/>
<path d="M77.2702 32.2168H53.4902C51.7726 32.2168 50.3802 33.3691 50.3802 34.7906V77.643C50.3802 79.0645 51.7726 80.2168 53.4902 80.2168H77.2702C78.9879 80.2168 80.3802 79.0645 80.3802 77.643V34.7906C80.3802 33.3691 78.9879 32.2168 77.2702 32.2168Z" fill="#333533"/>
<path d="M64.3802 50.4236H58.3802V55.3891H64.3802V50.4236Z" fill="#FFDD3E"/>
<path d="M72.3802 58.6995H68.3802V62.0098H72.3802V58.6995Z" fill="#FFDD3E"/>
<path d="M76.3802 46.2856H72.3802C72.115 46.2856 71.8607 46.3728 71.6731 46.528C71.4856 46.6832 71.3802 46.8937 71.3802 47.1132C71.3802 47.3327 71.4856 47.5432 71.6731 47.6984C71.8607 47.8536 72.115 47.9408 72.3802 47.9408H75.3802V50.4236C75.3802 50.6431 75.4856 50.8536 75.6731 51.0088C75.8607 51.164 76.115 51.2512 76.3802 51.2512C76.6455 51.2512 76.8998 51.164 77.0874 51.0088C77.2749 50.8536 77.3802 50.6431 77.3802 50.4236V47.1132C77.3802 46.8937 77.2749 46.6832 77.0874 46.528C76.8998 46.3728 76.6455 46.2856 76.3802 46.2856Z" fill="#FFDD3E"/>
<path d="M76.3802 61.1824C76.115 61.1824 75.8607 61.2696 75.6731 61.4248C75.4856 61.58 75.3802 61.7905 75.3802 62.01V64.4927H72.3802C72.115 64.4927 71.8607 64.5799 71.6731 64.7351C71.4856 64.8903 71.3802 65.1008 71.3802 65.3203C71.3802 65.5398 71.4856 65.7503 71.6731 65.9055C71.8607 66.0607 72.115 66.1479 72.3802 66.1479H76.3802C76.6455 66.1479 76.8998 66.0607 77.0874 65.9055C77.2749 65.7503 77.3802 65.5398 77.3802 65.3203V62.01C77.3802 61.7905 77.2749 61.58 77.0874 61.4248C76.8998 61.2696 76.6455 61.1824 76.3802 61.1824Z" fill="#FFDD3E"/>
<path d="M54.3802 51.2512C54.6455 51.2512 54.8998 51.164 55.0874 51.0088C55.2749 50.8536 55.3802 50.6431 55.3802 50.4236V47.9408H58.3802C58.6455 47.9408 58.8998 47.8536 59.0874 47.6984C59.2749 47.5432 59.3802 47.3327 59.3802 47.1132C59.3802 46.8937 59.2749 46.6832 59.0874 46.528C58.8998 46.3728 58.6455 46.2856 58.3802 46.2856H54.3802C54.115 46.2856 53.8607 46.3728 53.6731 46.528C53.4856 46.6832 53.3802 46.8937 53.3802 47.1132V50.4236C53.3802 50.6431 53.4856 50.8536 53.6731 51.0088C53.8607 51.164 54.115 51.2512 54.3802 51.2512Z" fill="#FFDD3E"/>
<path d="M59.3802 65.3203C59.3802 65.1008 59.2749 64.8903 59.0874 64.7351C58.8998 64.5799 58.6455 64.4927 58.3802 64.4927H55.3802V62.01C55.3802 61.7905 55.2749 61.58 55.0874 61.4248C54.8998 61.2696 54.6455 61.1824 54.3802 61.1824C54.115 61.1824 53.8607 61.2696 53.6731 61.4248C53.4856 61.58 53.3802 61.7905 53.3802 62.01V65.3203C53.3802 65.5398 53.4856 65.7503 53.6731 65.9055C53.8607 66.0607 54.115 66.1479 54.3802 66.1479H58.3802C58.6455 66.1479 58.8998 66.0607 59.0874 65.9055C59.2749 65.7503 59.3802 65.5398 59.3802 65.3203Z" fill="#FFDD3E"/>
<path d="M72.3802 56.2169C72.6455 56.2169 72.8998 56.1297 73.0874 55.9745C73.2749 55.8193 73.3802 55.6088 73.3802 55.3893V50.4238C73.3802 50.2043 73.2749 49.9938 73.0874 49.8386C72.8998 49.6834 72.6455 49.5962 72.3802 49.5962C72.115 49.5962 71.8607 49.6834 71.6731 49.8386C71.4856 49.9938 71.3802 50.2043 71.3802 50.4238V55.3893C71.3802 55.6088 71.4856 55.8193 71.6731 55.9745C71.8607 56.1297 72.115 56.2169 72.3802 56.2169Z" fill="#E6E6E6"/>
<path d="M68.3802 49.5962C68.115 49.5962 67.8607 49.6834 67.6731 49.8386C67.4856 49.9938 67.3802 50.2043 67.3802 50.4238V55.3893C67.3802 55.6088 67.4856 55.8193 67.6731 55.9745C67.8607 56.1297 68.115 56.2169 68.3802 56.2169C68.6455 56.2169 68.8998 56.1297 69.0874 55.9745C69.2749 55.8193 69.3802 55.6088 69.3802 55.3893V50.4238C69.3802 50.2043 69.2749 49.9938 69.0874 49.8386C68.8998 49.6834 68.6455 49.5962 68.3802 49.5962Z" fill="#E6E6E6"/>
<path d="M64.3802 61.1824H58.3802C58.115 61.1824 57.8607 61.2696 57.6731 61.4248C57.4856 61.58 57.3802 61.7905 57.3802 62.01C57.3802 62.2294 57.4856 62.4399 57.6731 62.5952C57.8607 62.7504 58.115 62.8375 58.3802 62.8375H64.3802C64.6455 62.8375 64.8998 62.7504 65.0874 62.5952C65.2749 62.4399 65.3802 62.2294 65.3802 62.01C65.3802 61.7905 65.2749 61.58 65.0874 61.4248C64.8998 61.2696 64.6455 61.1824 64.3802 61.1824Z" fill="#E6E6E6"/>
<path d="M64.3802 57.8721H58.3802C58.115 57.8721 57.8607 57.9593 57.6731 58.1145C57.4856 58.2697 57.3802 58.4802 57.3802 58.6997C57.3802 58.9191 57.4856 59.1296 57.6731 59.2848C57.8607 59.4401 58.115 59.5272 58.3802 59.5272H64.3802C64.6455 59.5272 64.8998 59.4401 65.0874 59.2848C65.2749 59.1296 65.3802 58.9191 65.3802 58.6997C65.3802 58.4802 65.2749 58.2697 65.0874 58.1145C64.8998 57.9593 64.6455 57.8721 64.3802 57.8721Z" fill="#E6E6E6"/>
<path d="M54.3802 77.734H58.3802C58.6455 77.734 58.8998 77.6468 59.0874 77.4916C59.2749 77.3364 59.3802 77.1259 59.3802 76.9064C59.3802 76.687 59.2749 76.4765 59.0874 76.3213C58.8998 76.166 58.6455 76.0789 58.3802 76.0789H54.3802C54.115 76.0789 53.8607 76.166 53.6731 76.3213C53.4856 76.4765 53.3802 76.687 53.3802 76.9064C53.3802 77.1259 53.4856 77.3364 53.6731 77.4916C53.8607 77.6468 54.115 77.734 54.3802 77.734Z" fill="white"/>
<path d="M62.3802 77.734C62.9325 77.734 63.3802 77.3635 63.3802 76.9064C63.3802 76.4494 62.9325 76.0789 62.3802 76.0789C61.828 76.0789 61.3802 76.4494 61.3802 76.9064C61.3802 77.3635 61.828 77.734 62.3802 77.734Z" fill="white"/>
<path d="M65.3802 35.5272C65.9325 35.5272 66.3802 35.1567 66.3802 34.6997C66.3802 34.2426 65.9325 33.8721 65.3802 33.8721C64.828 33.8721 64.3802 34.2426 64.3802 34.6997C64.3802 35.1567 64.828 35.5272 65.3802 35.5272Z" fill="#262826"/>
<path d="M81.3802 38.8374H80.3802V45.4581H81.3802C81.6455 45.4581 81.8998 45.3709 82.0874 45.2157C82.2749 45.0605 82.3802 44.85 82.3802 44.6305V39.665C82.3802 39.4455 82.2749 39.235 82.0874 39.0798C81.8998 38.9246 81.6455 38.8374 81.3802 38.8374Z" fill="#262826"/>
<path d="M81.3802 48.7686H80.3802V52.9065H81.3802C81.6455 52.9065 81.8998 52.8193 82.0874 52.6641C82.2749 52.5089 82.3802 52.2984 82.3802 52.0789V49.5961C82.3802 49.3767 82.2749 49.1662 82.0874 49.0109C81.8998 48.8557 81.6455 48.7686 81.3802 48.7686Z" fill="#262826"/>
</g>
<defs>
<filter id="filter0_d_3007_105" x="-1.2251" y="-1.7832" width="148.648" height="151.254" filterUnits="userSpaceOnUse" color-interpolation-filters="sRGB">
<feFlood flood-opacity="0" result="BackgroundImageFix"/>
<feColorMatrix in="SourceAlpha" type="matrix" values="0 0 0 0 0 0 0 0 0 0 0 0 0 0 0 0 0 0 127 0" result="hardAlpha"/>
<feOffset/>
<feGaussianBlur stdDeviation="5"/>
<feComposite in2="hardAlpha" operator="out"/>
<feColorMatrix type="matrix" values="0 0 0 0 0.788235 0 0 0 0 0.913725 0 0 0 0 0.721569 0 0 0 1 0"/>
<feBlend mode="normal" in2="BackgroundImageFix" result="effect1_dropShadow_3007_105"/>
<feBlend mode="normal" in="SourceGraphic" in2="effect1_dropShadow_3007_105" result="shape"/>
</filter>
</defs>
</svg>
