<svg width="109" height="119" viewBox="0 0 109 119" fill="none" xmlns="http://www.w3.org/2000/svg">
<g filter="url(#filter0_d_4880_251)">
<path d="M93 64.9551C106.5 -2.04492 95.6142 109 68 109C40.3858 109 10 70.1142 10 42.5C10 14.8858 27.8858 10 55.5 10C83.1142 10 111.388 17.9551 93 64.9551Z" fill="#FDFEBF"/>
<path d="M18.424 42.098C17.7053 42.098 17.0613 41.9813 16.492 41.748C15.9227 41.5147 15.4653 41.1693 15.12 40.712C14.784 40.2547 14.6067 39.704 14.588 39.06H17.136C17.1733 39.424 17.2993 39.704 17.514 39.9C17.7287 40.0867 18.0087 40.18 18.354 40.18C18.7087 40.18 18.9887 40.1007 19.194 39.942C19.3993 39.774 19.502 39.5453 19.502 39.256C19.502 39.0133 19.418 38.8127 19.25 38.654C19.0913 38.4953 18.8907 38.3647 18.648 38.262C18.4147 38.1593 18.0787 38.0427 17.64 37.912C17.0053 37.716 16.4873 37.52 16.086 37.324C15.6847 37.128 15.3393 36.8387 15.05 36.456C14.7607 36.0733 14.616 35.574 14.616 34.958C14.616 34.0433 14.9473 33.3293 15.61 32.816C16.2727 32.2933 17.136 32.032 18.2 32.032C19.2827 32.032 20.1553 32.2933 20.818 32.816C21.4807 33.3293 21.8353 34.048 21.882 34.972H19.292C19.2733 34.6547 19.1567 34.4073 18.942 34.23C18.7273 34.0433 18.452 33.95 18.116 33.95C17.8267 33.95 17.5933 34.0293 17.416 34.188C17.2387 34.3373 17.15 34.5567 17.15 34.846C17.15 35.1633 17.2993 35.4107 17.598 35.588C17.8967 35.7653 18.3633 35.9567 18.998 36.162C19.6327 36.3767 20.146 36.582 20.538 36.778C20.9393 36.974 21.2847 37.2587 21.574 37.632C21.8633 38.0053 22.008 38.486 22.008 39.074C22.008 39.634 21.8633 40.1427 21.574 40.6C21.294 41.0573 20.8833 41.4213 20.342 41.692C19.8007 41.9627 19.1613 42.098 18.424 42.098ZM34.2753 34.188L32.1613 42H29.5153L28.2833 36.932L27.0093 42H24.3773L22.2493 34.188H24.6433L25.7493 39.774L27.0653 34.188H29.5993L30.9293 39.746L32.0213 34.188H34.2753ZM35.9722 33.376C35.5522 33.376 35.2069 33.2547 34.9362 33.012C34.6749 32.76 34.5442 32.452 34.5442 32.088C34.5442 31.7147 34.6749 31.4067 34.9362 31.164C35.2069 30.912 35.5522 30.786 35.9722 30.786C36.3829 30.786 36.7189 30.912 36.9802 31.164C37.2509 31.4067 37.3862 31.7147 37.3862 32.088C37.3862 32.452 37.2509 32.76 36.9802 33.012C36.7189 33.2547 36.3829 33.376 35.9722 33.376ZM37.1622 34.188V42H34.7682V34.188H37.1622ZM42.8311 39.97V42H41.6131C40.7451 42 40.0685 41.79 39.5831 41.37C39.0978 40.9407 38.8551 40.2453 38.8551 39.284V36.176H37.9031V34.188H38.8551V32.284H41.2491V34.188H42.8171V36.176H41.2491V39.312C41.2491 39.5453 41.3051 39.7133 41.4171 39.816C41.5291 39.9187 41.7158 39.97 41.9771 39.97H42.8311ZM43.2686 38.094C43.2686 37.282 43.432 36.5727 43.7586 35.966C44.0946 35.3593 44.5566 34.8927 45.1446 34.566C45.742 34.2393 46.4233 34.076 47.1886 34.076C48.1686 34.076 48.9853 34.3327 49.6386 34.846C50.3013 35.3593 50.7353 36.0827 50.9406 37.016H48.3926C48.178 36.4187 47.7626 36.12 47.1466 36.12C46.708 36.12 46.358 36.2927 46.0966 36.638C45.8353 36.974 45.7046 37.4593 45.7046 38.094C45.7046 38.7287 45.8353 39.2187 46.0966 39.564C46.358 39.9 46.708 40.068 47.1466 40.068C47.7626 40.068 48.178 39.7693 48.3926 39.172H50.9406C50.7353 40.0867 50.3013 40.8053 49.6386 41.328C48.976 41.8507 48.1593 42.112 47.1886 42.112C46.4233 42.112 45.742 41.9487 45.1446 41.622C44.5566 41.2953 44.0946 40.8287 43.7586 40.222C43.432 39.6153 43.2686 38.906 43.2686 38.094ZM56.6032 34.104C57.4992 34.104 58.2179 34.4027 58.7592 35C59.3005 35.588 59.5712 36.4 59.5712 37.436V42H57.1912V37.758C57.1912 37.2353 57.0559 36.8293 56.7852 36.54C56.5145 36.2507 56.1505 36.106 55.6932 36.106C55.2359 36.106 54.8719 36.2507 54.6012 36.54C54.3305 36.8293 54.1952 37.2353 54.1952 37.758V42H51.8012V31.64H54.1952V35.238C54.4379 34.8927 54.7692 34.6173 55.1892 34.412C55.6092 34.2067 56.0805 34.104 56.6032 34.104ZM65.8268 42L63.7828 38.29H63.2088V42H60.8148V32.172H64.8328C65.6075 32.172 66.2655 32.3073 66.8068 32.578C67.3575 32.8487 67.7681 33.222 68.0388 33.698C68.3095 34.1647 68.4448 34.6873 68.4448 35.266C68.4448 35.9193 68.2581 36.5027 67.8848 37.016C67.5208 37.5293 66.9795 37.8933 66.2608 38.108L68.5288 42H65.8268ZM63.2088 36.596H64.6928C65.1315 36.596 65.4581 36.4887 65.6728 36.274C65.8968 36.0593 66.0088 35.756 66.0088 35.364C66.0088 34.9907 65.8968 34.6967 65.6728 34.482C65.4581 34.2673 65.1315 34.16 64.6928 34.16H63.2088V36.596ZM70.7316 33.376C70.3116 33.376 69.9663 33.2547 69.6956 33.012C69.4343 32.76 69.3036 32.452 69.3036 32.088C69.3036 31.7147 69.4343 31.4067 69.6956 31.164C69.9663 30.912 70.3116 30.786 70.7316 30.786C71.1423 30.786 71.4783 30.912 71.7396 31.164C72.0103 31.4067 72.1456 31.7147 72.1456 32.088C72.1456 32.452 72.0103 32.76 71.7396 33.012C71.4783 33.2547 71.1423 33.376 70.7316 33.376ZM71.9216 34.188V42H69.5276V34.188H71.9216ZM72.7605 38.08C72.7605 37.2773 72.9098 36.5727 73.2085 35.966C73.5165 35.3593 73.9318 34.8927 74.4545 34.566C74.9772 34.2393 75.5605 34.076 76.2045 34.076C76.7178 34.076 77.1845 34.1833 77.6045 34.398C78.0338 34.6127 78.3698 34.902 78.6125 35.266V31.64H81.0065V42H78.6125V40.88C78.3885 41.2533 78.0665 41.552 77.6465 41.776C77.2358 42 76.7552 42.112 76.2045 42.112C75.5605 42.112 74.9772 41.9487 74.4545 41.622C73.9318 41.286 73.5165 40.8147 73.2085 40.208C72.9098 39.592 72.7605 38.8827 72.7605 38.08ZM78.6125 38.094C78.6125 37.4967 78.4445 37.0253 78.1085 36.68C77.7818 36.3347 77.3805 36.162 76.9045 36.162C76.4285 36.162 76.0225 36.3347 75.6865 36.68C75.3598 37.016 75.1965 37.4827 75.1965 38.08C75.1965 38.6773 75.3598 39.1533 75.6865 39.508C76.0225 39.8533 76.4285 40.026 76.9045 40.026C77.3805 40.026 77.7818 39.8533 78.1085 39.508C78.4445 39.1627 78.6125 38.6913 78.6125 38.094ZM89.6825 37.968C89.6825 38.192 89.6685 38.4253 89.6405 38.668H84.2225C84.2598 39.1533 84.4138 39.5267 84.6845 39.788C84.9645 40.04 85.3051 40.166 85.7065 40.166C86.3038 40.166 86.7191 39.914 86.9525 39.41H89.5005C89.3698 39.9233 89.1318 40.3853 88.7865 40.796C88.4505 41.2067 88.0258 41.5287 87.5125 41.762C86.9991 41.9953 86.4251 42.112 85.7905 42.112C85.0251 42.112 84.3438 41.9487 83.7465 41.622C83.1491 41.2953 82.6825 40.8287 82.3465 40.222C82.0105 39.6153 81.8425 38.906 81.8425 38.094C81.8425 37.282 82.0058 36.5727 82.3325 35.966C82.6685 35.3593 83.1351 34.8927 83.7325 34.566C84.3298 34.2393 85.0158 34.076 85.7905 34.076C86.5465 34.076 87.2185 34.2347 87.8065 34.552C88.3945 34.8693 88.8518 35.322 89.1785 35.91C89.5145 36.498 89.6825 37.184 89.6825 37.968ZM87.2325 37.338C87.2325 36.9273 87.0925 36.6007 86.8125 36.358C86.5325 36.1153 86.1825 35.994 85.7625 35.994C85.3611 35.994 85.0205 36.1107 84.7405 36.344C84.4698 36.5773 84.3018 36.9087 84.2365 37.338H87.2325Z" fill="black"/>
<path d="M68.9475 67.165C68.8908 67.004 68.7966 66.7365 67.8044 65.7532C68.2339 65.6857 68.5799 65.5652 68.8509 65.3899C69.2777 65.1139 69.5224 64.6955 69.5224 64.242C69.5224 63.0398 68.6323 62.3635 67.7948 62.3375L66.0379 62.3371C66.0177 62.3371 65.9976 62.3377 65.9776 62.3388C65.0225 59.7473 64.4498 59.0767 64.0124 58.7858C63.7291 58.5968 63.2663 58.2884 59.9286 58.1355L59.5681 56.4439L59.5662 56.4356C59.4154 55.7605 58.8082 55.0339 57.8313 55.0339H52.1688C51.1923 55.0339 50.5847 55.7611 50.4334 56.4368L50.0715 58.1355C46.7338 58.2883 46.2711 58.5968 45.9881 58.7854C45.5506 59.0768 44.9782 59.7475 44.0228 62.3388C44.0027 62.3376 43.9824 62.3371 43.9622 62.3371H42.2324L42.2052 62.3375C41.3677 62.3635 40.4775 63.0398 40.4775 64.242C40.4775 64.695 40.7218 65.1133 41.1478 65.3894C41.419 65.5652 41.7654 65.686 42.1953 65.7535C41.2034 66.7366 41.1095 67.0038 41.0534 67.1634C40.908 67.5747 40.7208 69.5616 40.6892 71.0286C40.6406 73.2639 40.8689 74.7212 41.4045 75.5548V77.2668C41.4045 78.2037 42.167 78.966 43.1043 78.966H45.6004C46.5377 78.966 47.3002 78.2037 47.3002 77.2668V76.7538C48.7057 76.817 50.2976 76.8721 51.8387 76.9106C52.1295 77.2098 52.5343 77.3893 52.9691 77.3893H57.0309C57.4663 77.3893 57.8713 77.2098 58.1619 76.9105C59.715 76.8714 61.3066 76.8164 62.6998 76.7538V77.2668C62.6998 78.2037 63.4623 78.966 64.3996 78.966H66.8957C67.833 78.966 68.5956 78.2037 68.5956 77.2668V75.5538C69.1309 74.7196 69.3595 73.2626 69.3113 71.0286C69.2792 69.559 69.0919 67.5722 68.9475 67.165Z" fill="#9BADA1"/>
<path d="M68.9475 67.165C68.8908 67.004 68.7966 66.7365 67.8044 65.7532C68.2339 65.6857 68.5799 65.5652 68.8509 65.3899C69.2777 65.1139 69.5224 64.6955 69.5224 64.242C69.5224 63.0398 68.6323 62.3635 67.7948 62.3375L66.0379 62.3371C66.0177 62.3371 65.9976 62.3377 65.9776 62.3388C65.0225 59.7473 64.4498 59.0767 64.0124 58.7858C63.7291 58.5968 63.2663 58.2884 59.9286 58.1355L59.5681 56.4439L59.5662 56.4356C59.4154 55.7605 58.8082 55.0339 57.8313 55.0339H52.1688C51.1923 55.0339 50.5847 55.7611 50.4334 56.4368L50.0715 58.1355C46.7338 58.2883 46.2711 58.5968 45.9881 58.7854C45.5506 59.0768 44.9782 59.7475 44.0228 62.3388C44.0027 62.3376 43.9824 62.3371 43.9622 62.3371H42.2324L42.2052 62.3375C41.3677 62.3635 40.4775 63.0398 40.4775 64.242C40.4775 64.695 40.7218 65.1133 41.1478 65.3894C41.419 65.5652 41.7654 65.686 42.1953 65.7535C41.2034 66.7366 41.1095 67.0038 41.0534 67.1634C40.908 67.5747 40.7208 69.5616 40.6892 71.0286C40.6406 73.2639 40.8689 74.7212 41.4045 75.5548V77.2668C41.4045 78.2037 42.167 78.966 43.1043 78.966H45.6004C46.5377 78.966 47.3002 78.2037 47.3002 77.2668V76.7538C48.7057 76.817 50.2976 76.8721 51.8387 76.9106C52.1295 77.2098 52.5343 77.3893 52.9691 77.3893H57.0309C57.4663 77.3893 57.8713 77.2098 58.1619 76.9105C59.715 76.8714 61.3066 76.8164 62.6998 76.7538V77.2668C62.6998 78.2037 63.4623 78.966 64.3996 78.966H66.8957C67.833 78.966 68.5956 78.2037 68.5956 77.2668V75.5538C69.1309 74.7196 69.3595 73.2626 69.3113 71.0286C69.2792 69.559 69.0919 67.5722 68.9475 67.165Z" fill="url(#paint0_linear_4880_251)"/>
<path d="M53.8446 74.1309C53.8481 74.1086 53.851 74.0857 53.851 74.0623C53.851 73.832 53.6641 73.6445 53.4344 73.6445H49.4682C49.3569 73.6445 49.252 73.6885 49.1717 73.7676C49.0938 73.8455 49.0504 73.9504 49.0504 74.0623C49.0504 74.2926 49.2379 74.4795 49.4682 74.4795H52.3662C52.491 74.268 52.7201 74.1309 52.9692 74.1309H53.8446Z" fill="#00B378"/>
<path d="M42.6936 75.5234V77.2666C42.6936 77.4928 42.8776 77.6768 43.1043 77.6768H45.6004C45.8266 77.6768 46.0112 77.4928 46.0112 77.2666V75.8105C44.3846 75.7227 43.2977 75.6324 42.7792 75.5433C42.7499 75.5387 42.7217 75.5317 42.6936 75.5234Z" fill="#00B378"/>
<path d="M44.2539 64.3592L43.842 63.6262H42.2436C42.1621 63.6309 41.7766 63.6819 41.7672 64.2215C41.7901 64.2625 41.9864 64.5292 43.1313 64.5292C43.1612 64.5297 43.678 64.5444 44.0975 64.8473C44.1391 64.7143 44.1918 64.5497 44.2539 64.3592Z" fill="#00B378"/>
<path d="M57.0308 74.541H52.9691C52.8443 74.541 52.7306 74.6253 52.6931 74.7455C52.6855 74.7707 52.6814 74.7994 52.6814 74.8281V75.8201C52.682 75.8248 52.682 75.8248 52.6826 75.8295C52.6908 75.9789 52.8197 76.1001 52.9691 76.1001H57.0308C57.1802 76.1001 57.3091 75.9789 57.3173 75.8301C57.3179 75.8254 57.3179 75.8207 57.3186 75.8166V74.8281C57.3186 74.7988 57.3145 74.7702 57.3063 74.7426C57.2693 74.6253 57.1556 74.541 57.0308 74.541Z" fill="#00B378"/>
<path d="M44.0213 68.684H47.6963C47.6963 68.684 47.6963 68.684 47.6969 68.684C47.6969 68.684 47.6969 68.684 47.6975 68.684H65.9788C66.1774 67.6487 65.6852 65.551 65.6647 65.4637C65.6583 65.4432 65.639 65.3805 65.609 65.2815C65.5734 65.166 65.4743 64.8473 65.3284 64.4002C64.487 61.8432 63.7276 60.1451 63.2976 59.858C63.1048 59.7303 62.295 59.4989 59.0372 59.3905C57.0286 59.3237 55.0657 59.3389 55.0464 59.3389C55.0458 59.3389 55.0458 59.3389 55.0458 59.3389C55.0452 59.3389 55.0446 59.3389 55.0446 59.3389H54.9555C54.9344 59.3389 52.9715 59.3237 50.9629 59.3905C47.7051 59.4989 46.8954 59.7303 46.7026 59.8586C46.2725 60.1451 45.5131 61.8432 44.6717 64.4008C44.527 64.8455 44.4268 65.1655 44.3905 65.2826C44.36 65.3834 44.3407 65.4467 44.3348 65.4655C44.3067 65.5838 43.8245 67.6569 44.0213 68.684ZM44.8006 65.3576C44.9219 64.9135 46.0077 61.003 46.7682 60.3057C46.9094 60.1762 47.2844 59.8323 51.1991 59.6594C53.1016 59.5756 54.9374 59.575 54.9561 59.575H55.0446C55.0446 59.575 55.0446 59.575 55.0452 59.575C55.0733 59.575 56.9038 59.5762 58.8011 59.66C62.7157 59.8323 63.0907 60.1762 63.2319 60.3057C63.9924 61.003 65.0782 64.9141 65.1995 65.3576C65.2165 65.4203 65.203 65.4871 65.1626 65.5381C65.1239 65.5879 65.0641 65.6166 65.0015 65.6166H64.9956C64.9288 65.6149 58.2491 65.4274 55.0446 65.4274C55.044 65.4274 55.044 65.4268 55.044 65.4268H54.9555C51.751 65.4268 45.0713 65.6149 45.0045 65.6166H44.9987C44.936 65.6166 44.8762 65.5879 44.8376 65.5381C44.7971 65.4871 44.7836 65.4203 44.8006 65.3576Z" fill="#00B378"/>
<path d="M54.9573 58.9287H55.0416C55.0422 58.9287 55.0422 58.9287 55.0429 58.9287C55.0616 58.9287 56.8663 58.9146 58.7888 58.972L58.3077 56.7144C58.2989 56.6775 58.2034 56.323 57.8313 56.323H52.1688C51.7968 56.323 51.7013 56.6775 51.6919 56.7179L51.2114 58.972C53.1338 58.9146 54.9385 58.9287 54.9573 58.9287Z" fill="#00B378"/>
<path d="M63.9889 75.8108V77.2668C63.9889 77.493 64.1734 77.677 64.3996 77.677H66.8957C67.1225 77.677 67.3065 77.493 67.3065 77.2668V75.5237C67.2784 75.5313 67.2503 75.5383 67.2216 75.5436C66.7018 75.6327 65.6149 75.7223 63.9889 75.8108Z" fill="#00B378"/>
<path d="M60.9496 74.0629C60.9496 73.9504 60.9062 73.8455 60.8277 73.767C60.748 73.6885 60.6431 73.6445 60.5318 73.6445H56.5656C56.3359 73.6445 56.149 73.832 56.149 74.0629C56.149 74.0857 56.152 74.1086 56.1554 74.1309H57.0308C57.2804 74.1309 57.5101 74.2686 57.6343 74.4795H60.5318C60.7621 74.4795 60.9496 74.2926 60.9496 74.0629Z" fill="#00B378"/>
<path d="M66.0232 73.8655C66.0426 73.8315 66.0496 73.7999 66.0508 73.7717H62.514V74.3131C62.9476 74.3394 63.3484 74.353 63.7082 74.353C65.5439 74.353 65.9389 74.012 66.0232 73.8655Z" fill="#00B378"/>
<path d="M62.0981 71.0329V69.094H47.902V71.0329C47.902 71.1465 47.81 71.2379 47.6969 71.2379C45.9496 71.2379 44.6799 71.1378 43.8162 70.9303C43.8133 70.9297 43.8104 70.9291 43.8069 70.9286C42.5242 70.6163 42.3549 70.1053 42.291 69.6079L42.2852 69.5622C42.1821 68.7805 42.6567 68.6902 42.6766 68.6868C42.6883 68.6844 42.7 68.6838 42.7112 68.6838H43.6059C43.4852 67.9028 43.6645 66.7227 43.8028 65.9991C43.0375 66.7163 42.335 67.427 42.2682 67.594C42.2184 67.7522 42.0133 69.3384 41.977 71.0833C41.933 73.2079 42.1633 74.6077 42.6262 75.0243C42.6953 75.0882 42.768 75.1251 42.8489 75.1398C43.3715 75.2294 44.5082 75.3208 46.2268 75.4111C47.9465 75.5013 50.1907 75.5828 52.2713 75.6314V74.8895H49.4682C49.0117 74.8895 48.6403 74.5186 48.6403 74.0622C48.6403 73.8407 48.7264 73.6327 48.8823 73.4768C49.0405 73.3204 49.2485 73.2342 49.4682 73.2342H53.4344C53.8903 73.2342 54.2612 73.6057 54.2612 74.0622C54.2612 74.0855 54.2588 74.1078 54.2571 74.1307H55.743C55.7413 74.1078 55.739 74.0855 55.739 74.0628C55.739 73.6057 56.1099 73.2342 56.5657 73.2342H60.5319C60.7516 73.2342 60.9596 73.3204 61.1166 73.4762C61.2737 73.6333 61.3597 73.8412 61.3597 74.0628C61.3597 74.5186 60.9883 74.8895 60.5318 74.8895H57.7287V75.6312C59.8117 75.5827 62.0552 75.5012 63.7732 75.4109C65.4911 75.3207 66.6279 75.2293 67.1517 75.1391C67.2319 75.125 67.3046 75.0881 67.3726 75.0254C67.8367 74.6076 68.067 73.2078 68.023 71.0833C67.9867 69.3383 67.7816 67.7516 67.7313 67.5916C67.6651 67.4264 66.9625 66.7163 66.1972 65.999C66.3355 66.7227 66.5148 67.9027 66.3936 68.6838H67.2883C67.3 68.6838 67.3118 68.685 67.3235 68.6867C67.3434 68.6902 67.818 68.7811 67.7149 69.5621L67.7085 69.6078C67.6452 70.1046 67.4759 70.6162 66.1944 70.9279C66.1904 70.929 66.1862 70.9302 66.1821 70.9308C65.3179 71.1376 64.0494 71.2378 62.3032 71.2378C62.1901 71.2379 62.0981 71.1465 62.0981 71.0329ZM47.8961 74.5051C47.8961 74.6129 47.8129 74.702 47.7051 74.7096C47.1889 74.7448 46.7137 74.7629 46.2924 74.7629C46.2924 74.7629 46.2924 74.7629 46.2918 74.7629C44.7491 74.7629 43.8731 74.5315 43.6141 74.0562C43.4782 73.8066 43.5578 73.5612 43.6264 73.4551C43.6639 73.3965 43.7289 73.3613 43.7987 73.3613H47.691C47.8047 73.3613 47.8961 73.4533 47.8961 73.5664V74.5051ZM61.8438 70.6016C61.8438 70.7064 61.7653 70.7937 61.6616 70.8055C61.6387 70.8084 59.3284 71.0632 55.0446 71.0632H54.9555C50.6717 71.0632 48.3614 70.8083 48.3385 70.8055C48.2348 70.7937 48.1563 70.7064 48.1563 70.6016V69.4736C48.1563 69.3605 48.2483 69.2686 48.3614 69.2686H61.6387C61.7518 69.2686 61.8438 69.3605 61.8438 69.4736V70.6016ZM66.2014 73.3614C66.2711 73.3614 66.3362 73.3965 66.3737 73.4551C66.4422 73.5612 66.5218 73.8073 66.386 74.0563C66.127 74.5321 65.251 74.763 63.7082 74.763C63.2869 74.763 62.8111 74.7448 62.295 74.7097C62.1871 74.7021 62.1039 74.613 62.1039 74.5052V73.5665C62.1039 73.4534 62.1953 73.3614 62.309 73.3614H66.2014V73.3614Z" fill="#00B378"/>
<path d="M67.3083 69.5077C67.3446 69.2329 67.2854 69.1228 67.2491 69.094H66.345V70.4627C67.2198 70.199 67.2631 69.8586 67.3018 69.5557L67.3083 69.5077Z" fill="#00B378"/>
<path d="M68.2333 64.242C68.2333 63.686 67.8425 63.6315 67.7559 63.6262H66.1579L65.7461 64.3592C65.8082 64.5502 65.8609 64.7149 65.9025 64.8473C66.3214 64.5444 66.8383 64.5297 66.8646 64.5297C68.0236 64.5292 68.2333 64.245 68.2333 64.242Z" fill="#00B378"/>
<path d="M42.6918 69.5082L42.6982 69.5557C42.7369 69.8586 42.7803 70.199 43.6551 70.4627V69.094H42.751C42.7146 69.1227 42.6555 69.2329 42.6918 69.5082Z" fill="#00B378"/>
<path d="M43.9768 73.8655C44.0611 74.012 44.4561 74.353 46.2918 74.353C46.2924 74.353 46.2924 74.353 46.2924 74.353C46.6521 74.353 47.0523 74.3395 47.4859 74.3131V73.7717H43.9492C43.9504 73.7993 43.9574 73.8315 43.9768 73.8655Z" fill="#00B378"/>
<path d="M48.5664 70.4164C49.1863 70.4744 51.376 70.6531 54.9555 70.6531H55.0445C58.6247 70.6531 60.8137 70.4744 61.4336 70.4164V69.6787H48.5664V70.4164Z" fill="#00B378"/>
<path d="M44.9987 65.6166H45.0045C45.0713 65.6148 51.751 65.4267 54.9555 65.4267H55.044C55.044 65.4267 55.044 65.4273 55.0446 65.4273C58.2491 65.4273 64.9288 65.6148 64.9956 65.6166H65.0015C65.0641 65.6166 65.1239 65.5878 65.1626 65.538C65.203 65.4871 65.2165 65.4203 65.1995 65.3576C65.0782 64.914 63.9924 61.0029 63.232 60.3056C63.0907 60.1761 62.7157 59.8322 58.8011 59.6599C56.9038 59.5761 55.0734 59.575 55.0452 59.575C55.0446 59.575 55.0446 59.575 55.0446 59.575H54.9561C54.9374 59.575 53.1016 59.5755 51.1991 59.6593C47.2844 59.8322 46.9094 60.1761 46.7682 60.3056C46.0077 61.0029 44.9219 64.9134 44.8006 65.3576C44.7837 65.4203 44.7971 65.4871 44.8376 65.538C44.8762 65.5878 44.936 65.6166 44.9987 65.6166ZM47.0454 60.608C47.1672 60.496 47.8188 60.2189 51.2161 60.0695C53.1098 59.9857 54.9374 59.9851 54.9561 59.9851H55.044C55.044 59.9851 55.044 59.9851 55.0446 59.9851C55.0628 59.9851 56.8909 59.9857 58.784 60.0695C62.1819 60.2195 62.8329 60.496 62.9547 60.608C63.4862 61.0949 64.354 63.8722 64.7295 65.1988C63.4271 65.1636 57.8811 65.0171 55.0452 65.0171C55.0446 65.0171 55.0446 65.0166 55.0446 65.0166H54.9555C52.1202 65.0166 46.5731 65.163 45.2706 65.1988C45.6462 63.8722 46.5139 61.0949 47.0454 60.608Z" fill="#002F2E"/>
<path d="M47.691 73.3616H43.7986C43.7289 73.3616 43.6639 73.3967 43.6264 73.4553C43.5578 73.5614 43.4781 73.8069 43.6141 74.0565C43.873 74.5317 44.749 74.7632 46.2918 74.7632C46.2924 74.7632 46.2924 74.7632 46.2924 74.7632C46.7137 74.7632 47.1889 74.745 47.7051 74.7099C47.8129 74.7023 47.8961 74.6132 47.8961 74.5054V73.5667C47.8961 73.4535 47.8047 73.3616 47.691 73.3616ZM47.4859 74.3131C47.0523 74.3394 46.6521 74.353 46.2924 74.353C46.2924 74.353 46.2924 74.353 46.2918 74.353C44.456 74.353 44.0611 74.012 43.9768 73.8655C43.9574 73.8315 43.9504 73.7993 43.9492 73.7717H47.4859V74.3131Z" fill="#002F2E"/>
<path d="M68.6436 64.2419C68.6436 63.4521 68.0706 63.2253 67.7676 63.216H66.0379C65.9641 63.216 65.8955 63.2558 65.8592 63.3208L65.5715 63.8324C64.7184 61.3052 64.0305 59.8533 63.5248 59.5169C63.3754 59.4173 62.9242 59.1173 59.2111 58.9861L58.7084 56.6271C58.6533 56.3804 58.3996 55.9128 57.8313 55.9128H52.1687C51.6004 55.9128 51.3467 56.3804 51.291 56.6289L50.7889 58.9861C47.0758 59.1173 46.6246 59.4173 46.4752 59.5169C45.9701 59.8533 45.2822 61.3052 44.4285 63.8324L44.1408 63.3208C44.1045 63.2558 44.0365 63.216 43.9621 63.216H42.2324C41.9295 63.2253 41.3564 63.4521 41.3564 64.2419C41.3564 64.4054 41.4848 64.9392 43.1271 64.9392C43.133 64.9398 43.6516 64.9591 43.965 65.2714C43.9621 65.2814 43.9598 65.2896 43.9574 65.2978C43.4506 65.7601 42.008 67.0978 41.882 67.4564C41.807 67.6685 41.6037 69.3835 41.568 71.0476C41.5193 73.2818 41.7607 74.6986 42.2834 75.2617V77.2667C42.2834 77.7192 42.6514 78.0871 43.1043 78.0871H45.6004C46.0527 78.0871 46.4213 77.7192 46.4213 77.2667V75.8318C48.1281 75.9184 50.2979 75.9964 52.3111 76.0427C52.4066 76.3158 52.6662 76.5102 52.9691 76.5102H57.0309C57.3338 76.5102 57.5939 76.3158 57.6888 76.0427C59.7039 75.9958 61.8736 75.9185 63.5787 75.8318V77.2667C63.5787 77.7191 63.9473 78.087 64.3996 78.087H66.8957C67.3486 78.087 67.7167 77.7191 67.7167 77.2667V75.2611C68.2399 74.6957 68.4807 73.28 68.4327 71.0476C68.3963 69.3835 68.1936 67.6685 68.1186 67.457C67.9921 67.0978 66.5495 65.7601 66.0426 65.2978C66.0403 65.2896 66.0379 65.2808 66.035 65.2714C66.3503 64.9568 66.8676 64.9398 66.8687 64.9392C68.5152 64.9392 68.6436 64.4054 68.6436 64.2419ZM51.6918 56.7179C51.7012 56.6775 51.7967 56.323 52.1687 56.323H57.8313C58.2033 56.323 58.2988 56.6775 58.3076 56.7144L58.7887 58.972C56.8662 58.9146 55.0615 58.9287 55.0428 58.9287C55.0421 58.9287 55.0421 58.9287 55.0415 58.9287H54.9572C54.9384 58.9287 53.1337 58.9146 51.2113 58.972L51.6918 56.7179ZM44.3904 65.2826C44.4268 65.1654 44.527 64.8455 44.6717 64.4007C45.5131 61.8431 46.2725 60.1451 46.7025 59.8585C46.8953 59.7302 47.7051 59.4988 50.9629 59.3904C52.9715 59.3236 54.9344 59.3388 54.9555 59.3388H55.0445C55.0445 59.3388 55.0451 59.3388 55.0458 59.3388C55.0458 59.3388 55.0458 59.3388 55.0463 59.3388C55.0657 59.3388 57.0286 59.3236 59.0372 59.3904C62.295 59.4988 63.1047 59.7302 63.2975 59.858C63.7276 60.1451 64.487 61.8431 65.3283 64.4001C65.4742 64.8472 65.5733 65.166 65.609 65.2814C65.6389 65.3804 65.6583 65.4431 65.6646 65.4636C65.6852 65.5509 66.1773 67.6486 65.9787 68.6839H47.6975C47.6969 68.6839 47.6969 68.6839 47.6969 68.6839C47.6963 68.6839 47.6963 68.6839 47.6963 68.6839H44.0213C43.8244 67.6568 44.3066 65.5837 44.3348 65.4654C44.3406 65.4466 44.36 65.3833 44.3904 65.2826ZM65.9348 69.0941V70.5666C65.1484 70.7324 63.9976 70.8203 62.5082 70.8279V69.0941H65.9348ZM47.4918 69.0941V70.8279C46.0023 70.8203 44.8516 70.7324 44.0652 70.5666V69.0941H47.4918ZM43.1312 64.5291C41.9863 64.5291 41.79 64.2625 41.7672 64.2214C41.7766 63.6818 42.1621 63.6308 42.2436 63.6261H43.842L44.2539 64.3591C44.1918 64.5496 44.1391 64.7142 44.0975 64.8472C43.6779 64.5443 43.1611 64.5296 43.1312 64.5291ZM46.0111 77.2667C46.0111 77.4929 45.8266 77.6768 45.6004 77.6768H43.1043C42.8775 77.6768 42.6936 77.4929 42.6936 77.2667V75.5235C42.7217 75.5318 42.7498 75.5388 42.7791 75.5434C43.2977 75.6326 44.3846 75.7228 46.0111 75.8107V77.2667ZM52.3662 74.4794H49.4682C49.2379 74.4794 49.0504 74.2925 49.0504 74.0623C49.0504 73.9503 49.0938 73.8455 49.1717 73.7675C49.252 73.6884 49.3568 73.6445 49.4682 73.6445H53.4344C53.6641 73.6445 53.851 73.8319 53.851 74.0623C53.851 74.0856 53.848 74.1085 53.8445 74.1308H52.9691C52.7201 74.1308 52.491 74.2679 52.3662 74.4794ZM57.3186 75.8165C57.318 75.8206 57.318 75.8253 57.3174 75.83C57.3092 75.9788 57.1803 76.1 57.0309 76.1H52.9691C52.8197 76.1 52.6908 75.9788 52.6826 75.8294C52.682 75.8247 52.682 75.8247 52.6814 75.82V74.828C52.6814 74.7993 52.6855 74.7706 52.6932 74.7454C52.7307 74.6252 52.8443 74.5409 52.9691 74.5409H57.0309C57.1557 74.5409 57.2693 74.6252 57.3062 74.7424C57.3145 74.77 57.3186 74.7987 57.3186 74.828V75.8165H57.3186ZM57.6344 74.4794C57.5102 74.2684 57.2805 74.1308 57.0309 74.1308H56.1555C56.152 74.1085 56.1491 74.0856 56.1491 74.0628C56.1491 73.832 56.3359 73.6445 56.5656 73.6445H60.5318C60.6431 73.6445 60.748 73.6884 60.8277 73.7669C60.9062 73.8455 60.9496 73.9503 60.9496 74.0628C60.9496 74.2925 60.7621 74.4794 60.5318 74.4794H57.6344ZM67.3065 77.2667C67.3065 77.4929 67.1225 77.6768 66.8957 77.6768H64.3996C64.1734 77.6768 63.9889 77.4929 63.9889 77.2667V75.8106C65.6148 75.7222 66.7018 75.6325 67.2215 75.5434C67.2502 75.5381 67.2783 75.5311 67.3064 75.5235V77.2667H67.3065ZM66.182 70.931C66.1861 70.9304 66.1903 70.9292 66.1943 70.9281C67.4758 70.6164 67.6451 70.1048 67.7084 69.608L67.7148 69.5623C67.818 68.7813 67.3434 68.6904 67.3234 68.6869C67.3117 68.6852 67.3 68.684 67.2882 68.684H66.3935C66.5147 67.9029 66.3355 66.7229 66.1971 65.9992C66.9624 66.7164 67.665 67.4266 67.7312 67.5918C67.7815 67.7518 67.9866 69.3385 68.0229 71.0835C68.0669 73.2081 67.8366 74.6078 67.3725 75.0256C67.3046 75.0883 67.2319 75.1252 67.1516 75.1393C66.6278 75.2295 65.491 75.3209 63.7731 75.4111C62.0552 75.5014 59.8116 75.5829 57.7286 75.6315V74.8896H60.5317C60.9882 74.8896 61.3596 74.5187 61.3596 74.0628C61.3596 73.8414 61.2735 73.6334 61.1165 73.4763C60.9595 73.3205 60.7515 73.2343 60.5318 73.2343H56.5656C56.1098 73.2343 55.7389 73.6058 55.7389 74.0628C55.7389 74.0857 55.7412 74.108 55.7429 74.1308H54.257C54.2587 74.1079 54.2611 74.0856 54.2611 74.0623C54.2611 73.6058 53.8902 73.2343 53.4343 73.2343H49.4681C49.2484 73.2343 49.0404 73.3205 48.8822 73.4769C48.7263 73.6328 48.6402 73.8408 48.6402 74.0623C48.6402 74.5187 49.0117 74.8896 49.4681 74.8896H52.2712V75.6313C50.1906 75.5828 47.9464 75.5013 46.2267 75.411C44.5081 75.3208 43.3714 75.2294 42.8488 75.1397C42.7679 75.1251 42.6953 75.0882 42.6261 75.0243C42.1632 74.6077 41.9329 73.2079 41.9769 71.0833C42.0132 69.3384 42.2183 67.7522 42.2681 67.594C42.3349 67.427 43.0374 66.7163 43.8027 65.9991C43.6644 66.7227 43.4851 67.9028 43.6058 68.6838H42.7111C42.7 68.6838 42.6883 68.6844 42.6766 68.6867C42.6566 68.6903 42.182 68.7805 42.2852 69.5621L42.291 69.6078C42.3549 70.1052 42.5242 70.6162 43.8068 70.9285C43.8104 70.9291 43.8133 70.9297 43.8162 70.9302C44.6799 71.1377 45.9496 71.2379 47.6969 71.2379C47.81 71.2379 47.902 71.1464 47.902 71.0328V69.0939H62.098V71.0328C62.098 71.1464 62.19 71.2379 62.3031 71.2379C64.0493 71.238 65.3178 71.1378 66.182 70.931ZM66.3449 70.4628V69.0941H67.249C67.2854 69.1228 67.3445 69.233 67.3082 69.5078L67.3018 69.5558C67.2631 69.8587 67.2197 70.1991 66.3449 70.4628ZM43.6551 69.0941V70.4628C42.7803 70.1991 42.7369 69.8587 42.6982 69.5558L42.6918 69.5083C42.6555 69.233 42.7146 69.1228 42.751 69.0941H43.6551ZM65.9026 64.8472C65.861 64.7148 65.8083 64.5501 65.7462 64.3591L66.158 63.6261H67.7559C67.8425 63.6314 68.2333 63.6859 68.2333 64.2419C68.2333 64.2449 68.0236 64.5291 66.8646 64.5296C66.8383 64.5296 66.3215 64.5443 65.9026 64.8472Z" fill="#002F2E"/>
<path d="M62.1039 73.5665V74.5051C62.1039 74.6129 62.1871 74.702 62.2949 74.7096C62.8111 74.7448 63.2869 74.7629 63.7082 74.7629C65.251 74.7629 66.1269 74.5321 66.3859 74.0562C66.5218 73.8072 66.4422 73.5612 66.3736 73.4551C66.336 73.3965 66.2711 73.3613 66.2013 73.3613H62.309C62.1953 73.3614 62.1039 73.4533 62.1039 73.5665ZM62.514 73.7715H66.0508C66.0496 73.7996 66.0426 73.8313 66.0232 73.8653C65.9389 74.0118 65.5439 74.3528 63.7082 74.3528C63.3484 74.3528 62.9476 74.3393 62.514 74.3129V73.7715Z" fill="#002F2E"/>
<path d="M61.6387 69.2686H48.3613C48.2482 69.2686 48.1562 69.3605 48.1562 69.4736V70.6016C48.1562 70.7064 48.2348 70.7938 48.3385 70.8055C48.3613 70.8084 50.6717 71.0632 54.9555 71.0632H55.0445C59.3283 71.0632 61.6387 70.8083 61.6616 70.8055C61.7653 70.7938 61.8437 70.7064 61.8437 70.6016V69.4736C61.8437 69.3606 61.7518 69.2686 61.6387 69.2686ZM61.4336 70.4164C60.8137 70.4744 58.6247 70.6531 55.0445 70.6531H54.9555C51.376 70.6531 49.1863 70.4744 48.5664 70.4164V69.6787H61.4336V70.4164Z" fill="#002F2E"/>
</g>
<defs>
<filter id="filter0_d_4880_251" x="0" y="0" width="108.865" height="119" filterUnits="userSpaceOnUse" color-interpolation-filters="sRGB">
<feFlood flood-opacity="0" result="BackgroundImageFix"/>
<feColorMatrix in="SourceAlpha" type="matrix" values="0 0 0 0 0 0 0 0 0 0 0 0 0 0 0 0 0 0 127 0" result="hardAlpha"/>
<feOffset/>
<feGaussianBlur stdDeviation="5"/>
<feComposite in2="hardAlpha" operator="out"/>
<feColorMatrix type="matrix" values="0 0 0 0 0.992157 0 0 0 0 0.996078 0 0 0 0 0.74902 0 0 0 1 0"/>
<feBlend mode="normal" in2="BackgroundImageFix" result="effect1_dropShadow_4880_251"/>
<feBlend mode="normal" in="SourceGraphic" in2="effect1_dropShadow_4880_251" result="shape"/>
</filter>
<linearGradient id="paint0_linear_4880_251" x1="55" y1="55.034" x2="55" y2="78.966" gradientUnits="userSpaceOnUse">
<stop stop-color="white" stop-opacity="0"/>
<stop offset="1" stop-opacity="0.3"/>
</linearGradient>
</defs>
</svg>
