<svg width="127" height="147" viewBox="0 0 127 147" fill="none" xmlns="http://www.w3.org/2000/svg">
<g filter="url(#filter0_d_4880_278)">
<path d="M36.8076 43.5844C-17.5798 106.539 60.8526 -4.51619 88.9946 11.6231C117.137 27.7624 124.522 86.6389 107.777 115.838C91.0313 145.037 69.8409 139.75 41.699 123.61C13.557 107.471 -10.4328 82.5349 36.8076 43.5844Z" fill="white"/>
<path d="M29.6344 92.3011C28.9158 92.3011 28.2718 92.1845 27.7024 91.9511C27.1331 91.7178 26.6758 91.3725 26.3304 90.9151C25.9944 90.4578 25.8171 89.9071 25.7984 89.2631H28.3464C28.3838 89.6271 28.5098 89.9071 28.7244 90.1031C28.9391 90.2898 29.2191 90.3831 29.5644 90.3831C29.9191 90.3831 30.1991 90.3038 30.4044 90.1451C30.6098 89.9771 30.7124 89.7485 30.7124 89.4591C30.7124 89.2165 30.6284 89.0158 30.4604 88.8571C30.3018 88.6985 30.1011 88.5678 29.8584 88.4651C29.6251 88.3625 29.2891 88.2458 28.8504 88.1151C28.2158 87.9191 27.6978 87.7231 27.2964 87.5271C26.8951 87.3311 26.5498 87.0418 26.2604 86.6591C25.9711 86.2765 25.8264 85.7771 25.8264 85.1611C25.8264 84.2465 26.1578 83.5325 26.8204 83.0191C27.4831 82.4965 28.3464 82.2351 29.4104 82.2351C30.4931 82.2351 31.3658 82.4965 32.0284 83.0191C32.6911 83.5325 33.0458 84.2511 33.0924 85.1751H30.5024C30.4838 84.8578 30.3671 84.6105 30.1524 84.4331C29.9378 84.2465 29.6624 84.1531 29.3264 84.1531C29.0371 84.1531 28.8038 84.2325 28.6264 84.3911C28.4491 84.5405 28.3604 84.7598 28.3604 85.0491C28.3604 85.3665 28.5098 85.6138 28.8084 85.7911C29.1071 85.9685 29.5738 86.1598 30.2084 86.3651C30.8431 86.5798 31.3564 86.7851 31.7484 86.9811C32.1498 87.1771 32.4951 87.4618 32.7844 87.8351C33.0738 88.2085 33.2184 88.6891 33.2184 89.2771C33.2184 89.8371 33.0738 90.3458 32.7844 90.8031C32.5044 91.2605 32.0938 91.6245 31.5524 91.8951C31.0111 92.1658 30.3718 92.3011 29.6344 92.3011ZM45.4857 84.3911L43.3717 92.2031H40.7257L39.4937 87.1351L38.2197 92.2031H35.5877L33.4597 84.3911H35.8537L36.9597 89.9771L38.2757 84.3911H40.8097L42.1397 89.9491L43.2317 84.3911H45.4857ZM47.1827 83.5791C46.7627 83.5791 46.4173 83.4578 46.1467 83.2151C45.8853 82.9631 45.7547 82.6551 45.7547 82.2911C45.7547 81.9178 45.8853 81.6098 46.1467 81.3671C46.4173 81.1151 46.7627 80.9891 47.1827 80.9891C47.5933 80.9891 47.9293 81.1151 48.1907 81.3671C48.4613 81.6098 48.5967 81.9178 48.5967 82.2911C48.5967 82.6551 48.4613 82.9631 48.1907 83.2151C47.9293 83.4578 47.5933 83.5791 47.1827 83.5791ZM48.3727 84.3911V92.2031H45.9787V84.3911H48.3727ZM54.0416 90.1731V92.2031H52.8236C51.9556 92.2031 51.2789 91.9931 50.7936 91.5731C50.3082 91.1438 50.0656 90.4485 50.0656 89.4871V86.3791H49.1136V84.3911H50.0656V82.4871H52.4596V84.3911H54.0276V86.3791H52.4596V89.5151C52.4596 89.7485 52.5156 89.9165 52.6276 90.0191C52.7396 90.1218 52.9262 90.1731 53.1876 90.1731H54.0416ZM54.4791 88.2971C54.4791 87.4851 54.6424 86.7758 54.9691 86.1691C55.3051 85.5625 55.7671 85.0958 56.3551 84.7691C56.9524 84.4425 57.6337 84.2791 58.3991 84.2791C59.3791 84.2791 60.1957 84.5358 60.8491 85.0491C61.5117 85.5625 61.9457 86.2858 62.1511 87.2191H59.6031C59.3884 86.6218 58.9731 86.3231 58.3571 86.3231C57.9184 86.3231 57.5684 86.4958 57.3071 86.8411C57.0457 87.1771 56.9151 87.6625 56.9151 88.2971C56.9151 88.9318 57.0457 89.4218 57.3071 89.7671C57.5684 90.1031 57.9184 90.2711 58.3571 90.2711C58.9731 90.2711 59.3884 89.9725 59.6031 89.3751H62.1511C61.9457 90.2898 61.5117 91.0085 60.8491 91.5311C60.1864 92.0538 59.3697 92.3151 58.3991 92.3151C57.6337 92.3151 56.9524 92.1518 56.3551 91.8251C55.7671 91.4985 55.3051 91.0318 54.9691 90.4251C54.6424 89.8185 54.4791 89.1091 54.4791 88.2971ZM67.8136 84.3071C68.7096 84.3071 69.4283 84.6058 69.9696 85.2031C70.511 85.7911 70.7816 86.6031 70.7816 87.6391V92.2031H68.4016V87.9611C68.4016 87.4385 68.2663 87.0325 67.9956 86.7431C67.725 86.4538 67.361 86.3091 66.9036 86.3091C66.4463 86.3091 66.0823 86.4538 65.8116 86.7431C65.541 87.0325 65.4056 87.4385 65.4056 87.9611V92.2031H63.0116V81.8431H65.4056V85.4411C65.6483 85.0958 65.9796 84.8205 66.3996 84.6151C66.8196 84.4098 67.291 84.3071 67.8136 84.3071ZM83.1552 82.3751V92.2031H80.7612V86.3091L78.5632 92.2031H76.6312L74.4192 86.2951V92.2031H72.0252V82.3751H74.8532L77.6112 89.1791L80.3412 82.3751H83.1552ZM83.9808 88.2831C83.9808 87.4805 84.1301 86.7758 84.4288 86.1691C84.7368 85.5625 85.1521 85.0958 85.6748 84.7691C86.1975 84.4425 86.7808 84.2791 87.4248 84.2791C87.9755 84.2791 88.4561 84.3911 88.8668 84.6151C89.2868 84.8391 89.6088 85.1331 89.8328 85.4971V84.3911H92.2268V92.2031H89.8328V91.0971C89.5995 91.4611 89.2728 91.7551 88.8528 91.9791C88.4421 92.2031 87.9615 92.3151 87.4108 92.3151C86.7761 92.3151 86.1975 92.1518 85.6748 91.8251C85.1521 91.4891 84.7368 91.0178 84.4288 90.4111C84.1301 89.7951 83.9808 89.0858 83.9808 88.2831ZM89.8328 88.2971C89.8328 87.6998 89.6648 87.2285 89.3288 86.8831C89.0021 86.5378 88.6008 86.3651 88.1248 86.3651C87.6488 86.3651 87.2428 86.5378 86.9068 86.8831C86.5801 87.2191 86.4168 87.6858 86.4168 88.2831C86.4168 88.8805 86.5801 89.3565 86.9068 89.7111C87.2428 90.0565 87.6488 90.2291 88.1248 90.2291C88.6008 90.2291 89.0021 90.0565 89.3288 89.7111C89.6648 89.3658 89.8328 88.8945 89.8328 88.2971ZM95.9327 85.6931C96.2127 85.2638 96.5627 84.9278 96.9827 84.6851C97.4027 84.4331 97.8694 84.3071 98.3827 84.3071V86.8411H97.7247C97.1274 86.8411 96.6794 86.9718 96.3807 87.2331C96.0821 87.4851 95.9327 87.9331 95.9327 88.5771V92.2031H93.5387V84.3911H95.9327V85.6931ZM103.461 90.1731V92.2031H102.243C101.375 92.2031 100.698 91.9931 100.213 91.5731C99.7277 91.1438 99.485 90.4485 99.485 89.4871V86.3791H98.533V84.3911H99.485V82.4871H101.879V84.3911H103.447V86.3791H101.879V89.5151C101.879 89.7485 101.935 89.9165 102.047 90.0191C102.159 90.1218 102.346 90.1731 102.607 90.1731H103.461Z" fill="black"/>
<g clip-path="url(#clip0_4880_278)">
<path d="M59.7351 70.203C57.8934 70.203 56.4184 71.6947 56.4184 73.5364C56.4184 75.378 57.8934 76.8697 59.7351 76.8697C61.5768 76.8697 63.0684 75.378 63.0684 73.5364C63.0684 71.6947 61.5768 70.203 59.7351 70.203ZM49.7351 43.5364V46.8697H53.0684L59.0601 59.5114L56.8101 63.5947C56.5518 64.078 56.4018 64.6197 56.4018 65.203C56.4018 67.0447 57.8934 68.5364 59.7351 68.5364H79.7351V65.203H60.4434C60.2101 65.203 60.0268 65.0197 60.0268 64.7864C60.0268 64.7114 60.0434 64.6447 60.0768 64.5864L61.5684 61.8697H73.9851C75.2351 61.8697 76.3268 61.178 76.9018 60.153L82.8601 49.3364C82.9934 49.103 83.0684 48.828 83.0684 48.5364C83.0684 47.6114 82.3184 46.8697 81.4018 46.8697H56.7601L55.1768 43.5364H49.7351ZM76.4018 70.203C74.5601 70.203 73.0851 71.6947 73.0851 73.5364C73.0851 75.378 74.5601 76.8697 76.4018 76.8697C78.2434 76.8697 79.7351 75.378 79.7351 73.5364C79.7351 71.6947 78.2434 70.203 76.4018 70.203Z" fill="#FF0000" fill-opacity="0.68"/>
</g>
</g>
<defs>
<filter id="filter0_d_4880_278" x="-2.93152" y="-4.79688" width="132" height="153" filterUnits="userSpaceOnUse" color-interpolation-filters="sRGB">
<feFlood flood-opacity="0" result="BackgroundImageFix"/>
<feColorMatrix in="SourceAlpha" type="matrix" values="0 0 0 0 0 0 0 0 0 0 0 0 0 0 0 0 0 0 127 0" result="hardAlpha"/>
<feOffset/>
<feGaussianBlur stdDeviation="5"/>
<feComposite in2="hardAlpha" operator="out"/>
<feColorMatrix type="matrix" values="0 0 0 0 0.937255 0 0 0 0 0.941176 0 0 0 0 0.945098 0 0 0 1 0"/>
<feBlend mode="normal" in2="BackgroundImageFix" result="effect1_dropShadow_4880_278"/>
<feBlend mode="normal" in="SourceGraphic" in2="effect1_dropShadow_4880_278" result="shape"/>
</filter>
<clipPath id="clip0_4880_278">
<rect width="40" height="40" fill="white" transform="translate(48.0685 40.2031)"/>
</clipPath>
</defs>
</svg>
