<svg width="119" height="109" viewBox="0 0 119 109" fill="none" xmlns="http://www.w3.org/2000/svg">
<g filter="url(#filter0_d_4880_197)">
<path d="M63.2749 14.8254C-4.28611 4.49297 107.148 10.1416 108.447 37.7253C109.747 65.3089 72.3338 97.4908 44.7501 98.7901C17.1665 100.089 11.4445 82.4534 10.1452 54.8697C8.84585 27.2861 15.4618 -1.33042 63.2749 14.8254Z" fill="#FEDFB6"/>
<g clip-path="url(#clip0_4880_197)">
<path d="M65.4797 51.4883C63.6676 51.4883 62.1985 50.0192 62.1985 48.207C62.1985 46.3948 63.6676 44.9258 65.4797 44.9258C67.2919 44.9258 68.761 46.3948 68.761 48.207C68.761 50.0192 67.2919 51.4883 65.4797 51.4883Z" fill="#575757"/>
<path d="M66.8274 51.1986C66.2201 51.4722 65.544 51.5546 64.8888 51.4347C64.2336 51.3148 63.6304 50.9983 63.1594 50.5273C62.6885 50.0563 62.372 49.4532 62.2521 48.798C62.1322 48.1428 62.2145 47.4666 62.4882 46.8594C62.8043 47.8809 63.3646 48.8099 64.1207 49.566C64.8768 50.3221 65.8059 50.8825 66.8274 51.1986Z" fill="#4A4A4A"/>
<path d="M65.4797 49.1445C64.962 49.1445 64.5422 48.7248 64.5422 48.207C64.5422 47.6893 64.962 47.2695 65.4797 47.2695C65.9975 47.2695 66.4172 47.6893 66.4172 48.207C66.4172 48.7248 65.9975 49.1445 65.4797 49.1445Z" fill="#6E6E6E"/>
<path d="M59.8547 32.7383V34.6133H60.7922C61.0409 34.6133 61.2793 34.5145 61.4551 34.3387C61.631 34.1629 61.7297 33.9244 61.7297 33.6758C61.7297 33.4271 61.631 33.1887 61.4551 33.0129C61.2793 32.8371 61.0409 32.7383 60.7922 32.7383H59.8547Z" fill="#FDA5A3"/>
<path d="M52.8235 32.7383H59.8547V34.6133H52.8235V32.7383Z" fill="#00659D"/>
<path d="M60.6867 31.8008H63.4301C63.7771 31.8008 64.1197 31.8788 64.4325 32.0292C64.7452 32.1795 65.0202 32.3982 65.237 32.6692C65.5701 33.0857 65.7492 33.6045 65.7439 34.1378C65.7386 34.6711 65.5492 35.1862 65.2077 35.596L64.4259 36.5341C64.3191 36.6623 64.2484 36.8168 64.2212 36.9814C64.1939 37.1461 64.2112 37.3151 64.2711 37.4708L66.4172 43.0508H63.136L59.7973 33.0347C59.7503 32.8938 59.7375 32.7437 59.7599 32.5969C59.7823 32.45 59.8393 32.3106 59.9262 32.1901C60.013 32.0696 60.1273 31.9715 60.2595 31.9038C60.3917 31.8361 60.5381 31.8008 60.6867 31.8008Z" fill="#5CA4CC"/>
<path d="M57.0422 43.9883H57.7454C58.0562 43.9883 58.3542 44.1117 58.574 44.3315C58.7938 44.5513 58.9172 44.8494 58.9172 45.1602C58.9172 45.471 58.7938 45.769 58.574 45.9888C58.3542 46.2086 58.0562 46.332 57.7454 46.332H55.8704C55.5596 46.332 55.2615 46.2086 55.0417 45.9888C54.822 45.769 54.6985 45.471 54.6985 45.1602V42.1133C54.6985 41.7403 54.5503 41.3826 54.2866 41.1189C54.0229 40.8552 53.6652 40.707 53.2922 40.707H50.9485C50.6998 40.707 50.4614 40.6083 50.2856 40.4324C50.1098 40.2566 50.011 40.0182 50.011 39.7695V36.957H53.761V37.8945C53.761 38.1432 53.8598 38.3816 54.0356 38.5574C54.2114 38.7333 54.4498 38.832 54.6985 38.832H55.1672C55.6645 38.832 56.1414 39.0296 56.4931 39.3812C56.8447 39.7328 57.0422 40.2098 57.0422 40.707V43.9883Z" fill="#575757"/>
<path d="M50.5602 31.7204L50.6739 31.6066C50.7609 31.5196 50.83 31.4162 50.8771 31.3025C50.9242 31.1887 50.9485 31.0668 50.9485 30.9437V27.1133H55.636V28.6563C55.636 29.0311 55.5237 29.3972 55.3136 29.7075C55.1035 30.0178 54.8053 30.2581 54.4574 30.3972L53.8815 30.6276C53.7076 30.6971 53.5585 30.8173 53.4534 30.9724C53.3484 31.1276 53.2922 31.3106 53.2922 31.498V32.2695L53.761 32.7383V36.957H50.011V33.0462C50.011 32.5489 50.2085 32.072 50.5602 31.7204Z" fill="#FDA5A3"/>
<path d="M51.4932 27.1133L55.0155 30.0485C54.8515 30.1968 54.6626 30.3149 54.4574 30.3972L54.1278 30.5291L50.9485 27.8797V27.1133H51.4932Z" fill="#46C89D"/>
<path d="M50.5602 31.7204L50.6739 31.6066C50.8497 31.4308 50.9485 31.1923 50.9485 30.9437V30.8633H51.4977C51.6208 30.8633 51.7427 30.8875 51.8564 30.9346C51.9702 30.9818 52.0735 31.0508 52.1606 31.1379L53.761 32.7383V36.957H50.011V33.0463C50.011 32.549 50.2085 32.072 50.5602 31.7204Z" fill="#00659D"/>
<path d="M43.4485 32.2695H49.0735C49.5913 32.2695 50.011 32.6893 50.011 33.207V39.7695C50.011 40.2873 49.5913 40.707 49.0735 40.707H43.4485C42.9307 40.707 42.511 40.2873 42.511 39.7695V33.207C42.511 32.6893 42.9307 32.2695 43.4485 32.2695Z" fill="#00B378"/>
<path d="M50.011 34.1445H42.511V33.207C42.511 32.9584 42.6098 32.7199 42.7856 32.5441C42.9614 32.3683 43.1998 32.2695 43.4485 32.2695H49.0735C49.3221 32.2695 49.5606 32.3683 49.7364 32.5441C49.9122 32.7199 50.011 32.9584 50.011 33.207V34.1445Z" fill="#00A16C"/>
<path d="M43.9172 29.457H47.6672V30.3945H43.9172V29.457Z" fill="#CBE2EF"/>
<path d="M42.9797 27.582H46.7297V28.5195H42.9797V27.582Z" fill="#CBE2EF"/>
<path d="M42.0422 25.707H44.8547V26.6445H42.0422V25.707Z" fill="#CBE2EF"/>
<path d="M54.6985 43.9883H57.7454C58.0562 43.9883 58.3542 44.1117 58.574 44.3315C58.7938 44.5513 58.9172 44.8494 58.9172 45.1602C58.9172 45.471 58.7938 45.769 58.574 45.9888C58.3542 46.2086 58.0562 46.332 57.7454 46.332H55.8704C55.5596 46.332 55.2615 46.2086 55.0417 45.9888C54.822 45.769 54.6985 45.471 54.6985 45.1602V43.9883Z" fill="#00659D"/>
<path d="M43.9172 40.707H53.2922C53.4769 40.707 53.6598 40.7434 53.8304 40.8141C54.001 40.8847 54.156 40.9883 54.2866 41.1189C54.4172 41.2495 54.5208 41.4045 54.5914 41.5751C54.6621 41.7457 54.6985 41.9286 54.6985 42.1133V42.582H42.511V42.1133C42.511 41.9286 42.5474 41.7457 42.618 41.5751C42.6887 41.4045 42.7923 41.2495 42.9229 41.1189C43.0534 40.9883 43.2085 40.8847 43.3791 40.8141C43.5497 40.7434 43.7326 40.707 43.9172 40.707Z" fill="#338DBF"/>
<path d="M45.7922 35.5508H46.7297V36.957H45.7922V35.5508Z" fill="#59CEA7"/>
<path d="M55.0868 34.0641C55.2609 34.2383 55.4676 34.3764 55.6951 34.4706C55.9226 34.5648 56.1664 34.6133 56.4126 34.6133H61.261C61.5096 34.6133 61.7481 34.7121 61.9239 34.8879C62.0997 35.0637 62.1985 35.3022 62.1985 35.5508C62.1985 35.7995 62.0997 36.0379 61.9239 36.2137C61.7481 36.3896 61.5096 36.4883 61.261 36.4883H55.4751C55.2289 36.4883 54.9851 36.4398 54.7576 36.3456C54.5301 36.2514 54.3234 36.1133 54.1493 35.9391L51.2397 33.0296C51.1474 32.9372 51.0742 32.8276 51.0242 32.707C50.9742 32.5863 50.9485 32.457 50.9485 32.3264C50.9485 31.4406 52.0196 30.9969 52.646 31.6233L55.0868 34.0641Z" fill="#0071AF"/>
<path d="M60.3235 34.6133V36.4883H61.261C61.5096 36.4883 61.7481 36.3895 61.9239 36.2137C62.0997 36.0379 62.1985 35.7994 62.1985 35.5508C62.1985 35.3021 62.0997 35.0637 61.9239 34.8879C61.7481 34.7121 61.5096 34.6133 61.261 34.6133H60.3235Z" fill="#FDA5A3"/>
<path d="M44.386 38.832V38.3633C44.386 37.866 44.5835 37.3891 44.9352 37.0375C45.2868 36.6858 45.7637 36.4883 46.261 36.4883C46.7583 36.4883 47.2352 36.6858 47.5868 37.0375C47.9384 37.3891 48.136 37.866 48.136 38.3633V38.832H44.386Z" fill="#BDECDC"/>
<path d="M63.4301 31.8008C63.7771 31.8008 64.1197 31.8788 64.4325 32.0292C64.7452 32.1795 65.0202 32.3982 65.237 32.6692C65.5524 33.0636 65.7301 33.5503 65.743 34.0551C65.7559 34.56 65.6033 35.0552 65.3084 35.4651L64.2994 34.9606C64.0792 34.8505 63.8828 34.6981 63.7214 34.5121C63.5601 34.326 63.437 34.1101 63.3591 33.8765L62.6672 31.8008H63.4301Z" fill="#CBE2EF"/>
<path d="M64.8547 38.9883L66.4172 43.0508H63.136L62.55 41.2929L64.8547 38.9883Z" fill="#338DBF"/>
<path d="M54.6985 42.582V45.1602C54.6985 45.471 54.8219 45.769 55.0417 45.9888C55.2615 46.2086 55.5596 46.332 55.8704 46.332H59.841C59.9903 46.332 60.1373 46.2964 60.27 46.2281C60.4027 46.1598 60.5172 46.0609 60.6039 45.9394L62.3656 43.4731C62.4589 43.3425 62.582 43.236 62.7247 43.1625C62.8675 43.0891 63.0257 43.0508 63.1862 43.0508H66.6182C66.7937 43.0508 66.9661 43.0966 67.1185 43.1837L69.3169 44.4399C69.5426 44.5661 69.7122 44.7729 69.7919 45.0188C69.8717 45.2647 69.8556 45.5317 69.7469 45.7663C69.6842 45.8961 69.5944 46.0111 69.4836 46.1033C69.3727 46.1955 69.2434 46.2629 69.1043 46.3009C68.9652 46.3388 68.8196 46.3466 68.6773 46.3235C68.5349 46.3004 68.3992 46.2471 68.2792 46.1671L67.3565 45.552C67.2025 45.4493 67.0216 45.3945 66.8365 45.3945H64.2211C64.0719 45.3945 63.9248 45.4302 63.7921 45.4984C63.6594 45.5667 63.545 45.6657 63.4582 45.7871L62.0102 47.8144C61.9234 47.9359 61.809 48.0348 61.6763 48.1031C61.5436 48.1714 61.3965 48.207 61.2473 48.207H49.0735C49.0735 47.9584 48.9747 47.7199 48.7989 47.5441C48.6231 47.3683 48.3846 47.2695 48.136 47.2695C47.8873 47.2695 47.6489 47.3683 47.4731 47.5441C47.2972 47.7199 47.1985 47.9584 47.1985 48.207H44.8547V45.8778C44.8547 45.5968 44.7705 45.3222 44.6129 45.0895C44.4554 44.8567 44.2317 44.6766 43.9708 44.5722L43.395 44.3419C43.134 44.2375 42.9103 44.0573 42.7528 43.8246C42.5952 43.5919 42.511 43.3173 42.511 43.0362V42.582H54.6985Z" fill="#5CA4CC"/>
<path d="M48.136 51.4883C46.3238 51.4883 44.8547 50.0192 44.8547 48.207C44.8547 46.3948 46.3238 44.9258 48.136 44.9258C49.9482 44.9258 51.4172 46.3948 51.4172 48.207C51.4172 50.0192 49.9482 51.4883 48.136 51.4883Z" fill="#575757"/>
<path d="M48.136 49.1445C47.6182 49.1445 47.1985 48.7248 47.1985 48.207C47.1985 47.6893 47.6182 47.2695 48.136 47.2695C48.6538 47.2695 49.0735 47.6893 49.0735 48.207C49.0735 48.7248 48.6538 49.1445 48.136 49.1445Z" fill="#6E6E6E"/>
<path d="M50.011 33.207V39.7695C50.011 40.0182 49.9122 40.2566 49.7364 40.4324C49.5606 40.6083 49.3221 40.707 49.0735 40.707H43.4485C43.367 40.7067 43.286 40.6958 43.2074 40.6746C45.0678 40.501 46.7965 39.6392 48.0549 38.258C49.3133 36.8768 50.0109 35.0756 50.011 33.207Z" fill="#009966"/>
<path d="M53.761 40.707H50.9485C50.6998 40.707 50.4614 40.6083 50.2856 40.4324C50.1098 40.2566 50.011 40.0182 50.011 39.7695V36.957C50.011 37.9516 50.4061 38.9054 51.1093 39.6087C51.8126 40.3119 52.7664 40.707 53.761 40.707Z" fill="#4A4A4A"/>
<path d="M53.761 36.957H50.011V33.207C50.011 34.2016 50.4061 35.1554 51.1093 35.8587C51.8126 36.5619 52.7664 36.957 53.761 36.957Z" fill="#005686"/>
<path d="M57.0422 46.332H55.8704C55.7165 46.332 55.5641 46.3017 55.4219 46.2428C55.2797 46.1839 55.1505 46.0976 55.0417 45.9888C54.9329 45.88 54.8466 45.7508 54.7877 45.6086C54.7288 45.4664 54.6985 45.314 54.6985 45.1602V43.9883C54.6985 44.6099 54.9454 45.206 55.385 45.6456C55.8245 46.0851 56.4206 46.332 57.0422 46.332Z" fill="#005686"/>
<path d="M49.4836 51.1986C48.8764 51.4722 48.2002 51.5546 47.545 51.4347C46.8898 51.3148 46.2867 50.9983 45.8157 50.5273C45.3447 50.0563 45.0282 49.4532 44.9083 48.798C44.7884 48.1428 44.8708 47.4666 45.1444 46.8594C45.4605 47.8809 46.0209 48.8099 46.777 49.566C47.5331 50.3221 48.4621 50.8825 49.4836 51.1986Z" fill="#4A4A4A"/>
<path d="M43.9172 40.707H50.011C48.184 40.7045 46.4193 41.3716 45.0508 42.582H42.511V42.1133C42.511 41.9286 42.5474 41.7458 42.618 41.5751C42.6887 41.4045 42.7923 41.2495 42.9229 41.1189C43.0534 40.9883 43.2085 40.8848 43.3791 40.8141C43.5497 40.7434 43.7326 40.707 43.9172 40.707Z" fill="#2C78A3"/>
<path d="M43.5469 44.4026L43.3951 44.3419C43.1341 44.2375 42.9104 44.0573 42.7528 43.8246C42.5953 43.5919 42.5111 43.3173 42.5111 43.0362V42.582H45.0509C44.457 43.1061 43.9494 43.7205 43.5469 44.4026Z" fill="#4E8CAE"/>
<path d="M50.9485 30.8633V27.1133H55.636V27.2767C54.6998 27.4997 53.8296 27.9408 53.0963 28.5641C52.363 29.1874 51.7875 29.9752 51.4166 30.8633H50.9485Z" fill="#D78D8B"/>
<path d="M66.4116 43.0363L66.4172 43.0508H63.136L62.6176 41.4956C63.6829 42.4051 65.0138 42.9455 66.4116 43.0363Z" fill="#2C78A3"/>
<path d="M48.1267 38.1775C48.1328 38.2386 48.136 38.3006 48.136 38.3633V38.832H47.4708C47.7027 38.6275 47.9217 38.4089 48.1267 38.1775Z" fill="#A1C9BC"/>
<path d="M51.4932 27.1133L53.1655 28.5069C52.9228 28.7073 52.6959 28.9262 52.4867 29.1616L50.9485 27.8797V27.1133H51.4932Z" fill="#3CAA86"/>
<path d="M50.011 24.7695C50.3111 24.4694 50.7182 24.3008 51.1426 24.3008H55.4418C55.8663 24.3008 56.2734 24.4694 56.5735 24.7695C56.8736 25.0697 57.0422 25.4767 57.0422 25.9012V27.1133H53.4985C53.2868 27.1133 53.0771 27.155 52.8814 27.236C52.6858 27.3171 52.508 27.4358 52.3583 27.5856C52.2085 27.7353 52.0898 27.9131 52.0087 28.1087C51.9277 28.3044 51.886 28.5141 51.886 28.7258C51.886 29.3613 51.3919 29.9025 50.7568 29.925C50.5994 29.9308 50.4425 29.9047 50.2954 29.8484C50.1483 29.7922 50.0141 29.7068 49.9007 29.5975C49.7873 29.4882 49.6972 29.3572 49.6356 29.2122C49.574 29.0673 49.5422 28.9114 49.5422 28.7539V25.9012C49.5422 25.4767 49.7109 25.0697 50.011 24.7695Z" fill="#0071AF"/>
<path d="M50.9485 25.707H51.886V26.6445H50.9485V25.707Z" fill="#5CA4CC"/>
<path d="M51.8774 28.8635C51.8481 29.145 51.719 29.4068 51.5135 29.6015C51.308 29.7962 51.0396 29.9109 50.7569 29.925C50.5995 29.9307 50.4426 29.9047 50.2955 29.8484C50.1484 29.7921 50.0141 29.7068 49.9007 29.5975C49.7874 29.4882 49.6972 29.3571 49.6356 29.2122C49.574 29.0672 49.5423 28.9113 49.5423 28.7539V25.9011C49.5424 25.7131 49.5756 25.5266 49.6404 25.3501C49.9091 26.7643 50.7097 28.0217 51.8774 28.8635Z" fill="#006095"/>
<path d="M56.1047 26.6445H57.9797V27.582H56.1047V26.6445Z" fill="#0071AF"/>
<path d="M65.4797 46.8008C65.7579 46.8008 66.0297 46.8833 66.261 47.0378C66.4923 47.1923 66.6725 47.4119 66.7789 47.6689C66.8854 47.9258 66.9132 48.2086 66.859 48.4814C66.8047 48.7542 66.6708 49.0047 66.4741 49.2014C66.2774 49.3981 66.0269 49.532 65.7541 49.5863C65.4813 49.6405 65.1985 49.6127 64.9416 49.5062C64.6846 49.3998 64.465 49.2196 64.3105 48.9883C64.156 48.757 64.0735 48.4852 64.0735 48.207C64.0739 47.8342 64.2222 47.4768 64.4858 47.2131C64.7495 46.9495 65.1069 46.8012 65.4797 46.8008ZM65.4797 48.6758C65.5724 48.6758 65.6631 48.6483 65.7402 48.5968C65.8172 48.5453 65.8773 48.4721 65.9128 48.3864C65.9483 48.3008 65.9576 48.2065 65.9395 48.1156C65.9214 48.0247 65.8767 47.9411 65.8112 47.8756C65.7456 47.81 65.6621 47.7654 65.5712 47.7473C65.4803 47.7292 65.386 47.7385 65.3004 47.774C65.2147 47.8094 65.1415 47.8695 65.09 47.9466C65.0385 48.0237 65.011 48.1143 65.011 48.207C65.0111 48.3313 65.0606 48.4505 65.1484 48.5383C65.2363 48.6262 65.3555 48.6756 65.4797 48.6758Z" fill="black"/>
<path d="M43.4485 31.8008H49.0735C49.3255 31.8005 49.5729 31.8685 49.7895 31.9974C49.9023 31.7723 50.0506 31.5669 50.2287 31.3889L50.3424 31.2752C50.3861 31.2318 50.4207 31.1801 50.4443 31.1232C50.4679 31.0663 50.4799 31.0053 50.4798 30.9437V30.3781C50.0893 30.3215 49.7323 30.1263 49.474 29.828C49.2158 29.5297 49.0736 29.1484 49.0735 28.7539V25.9012C49.0735 25.6295 49.127 25.3604 49.231 25.1093C49.335 24.8583 49.4874 24.6302 49.6795 24.4381C49.8717 24.2459 50.0998 24.0935 50.3508 23.9895C50.6019 23.8855 50.8709 23.832 51.1427 23.832H55.4419C55.7136 23.832 55.9827 23.8855 56.2337 23.9895C56.4847 24.0935 56.7128 24.2459 56.905 24.4381C57.0971 24.6302 57.2495 24.8583 57.3535 25.1093C57.4575 25.3604 57.511 25.6295 57.511 25.9012V26.6445H57.9798V27.582H56.1048V28.6563C56.1063 29.1251 55.9665 29.5835 55.7037 29.9716C55.4409 30.3598 55.0673 30.6598 54.6314 30.8325L54.0556 31.0628C53.9685 31.0973 53.8938 31.1573 53.8412 31.235C53.7887 31.3126 53.7607 31.4043 53.761 31.498V32.0754L53.9552 32.2695H59.36C59.405 32.1435 59.4677 32.0245 59.5459 31.916C59.6754 31.7344 59.8466 31.5865 60.0451 31.4849C60.2436 31.3832 60.4637 31.3308 60.6867 31.332H63.4302C63.9591 31.332 64.477 31.4828 64.9233 31.7666C65.3696 32.0504 65.7258 32.4555 65.9501 32.9344C66.1744 33.4134 66.2576 33.9463 66.1899 34.4709C66.1222 34.9954 65.9064 35.4898 65.5678 35.8961L64.7861 36.8342C64.7327 36.8983 64.6973 36.9755 64.6837 37.0579C64.6701 37.1402 64.6787 37.2247 64.7087 37.3026L66.7414 42.5878C66.956 42.6057 67.164 42.6701 67.3511 42.7767L69.5715 44.0455C69.8462 44.2018 70.0634 44.442 70.1913 44.7309C70.3192 45.0199 70.351 45.3422 70.2821 45.6505C70.2131 45.9589 70.047 46.237 69.8083 46.4439C69.5695 46.6508 69.2706 46.7757 68.9556 46.8001C69.1572 47.2982 69.2494 47.8338 69.226 48.3706C69.2026 48.9074 69.0641 49.4329 68.8198 49.9116C68.5756 50.3902 68.2314 50.8107 67.8104 51.1447C67.3895 51.4787 66.9017 51.7183 66.3801 51.8473C65.8585 51.9763 65.3152 51.9918 64.7871 51.8925C64.259 51.7933 63.7584 51.5817 63.3192 51.2722C62.88 50.9626 62.5125 50.5622 62.2415 50.0982C61.9705 49.6342 61.8024 49.1174 61.7486 48.5828C61.5886 48.6441 61.4187 48.6756 61.2473 48.6758H51.8557C51.7366 49.6222 51.2612 50.4876 50.5264 51.0958C49.7917 51.7041 48.8527 52.0094 47.9007 51.9497C46.9487 51.8899 46.0553 51.4696 45.4023 50.7743C44.7493 50.079 44.3859 49.1609 44.386 48.207V45.8779C44.3866 45.6904 44.3307 45.507 44.2256 45.3517C44.1205 45.1965 43.971 45.0765 43.7966 45.0074L43.2209 44.7771C42.8723 44.639 42.5733 44.399 42.3631 44.0884C42.1528 43.7779 42.041 43.4112 42.0423 43.0362V42.1133C42.042 41.6419 42.22 41.1878 42.5405 40.8421C42.3844 40.7104 42.259 40.5461 42.1729 40.3609C42.0868 40.1756 42.0422 39.9738 42.0423 39.7695V33.207C42.0427 32.8342 42.191 32.4768 42.4546 32.2131C42.7182 31.9495 43.0757 31.8012 43.4485 31.8008ZM56.1048 26.6445H56.5735V25.9012C56.5735 25.6011 56.4543 25.3132 56.242 25.101C56.0298 24.8888 55.742 24.7695 55.4419 24.7695H51.1427C50.8425 24.7695 50.5547 24.8888 50.3425 25.101C50.1303 25.3132 50.011 25.6011 50.011 25.9012V28.7539C50.011 28.8484 50.0301 28.942 50.067 29.029C50.104 29.116 50.1582 29.1946 50.2262 29.2602C50.2943 29.3258 50.3749 29.377 50.4632 29.4107C50.5515 29.4445 50.6457 29.4601 50.7402 29.4565C51.1135 29.4433 51.4173 29.1155 51.4173 28.7258C51.4179 28.174 51.6374 27.645 52.0275 27.2548C52.4177 26.8646 52.9467 26.6452 53.4985 26.6445H56.1048ZM51.7274 30.0418L52.8607 31.1751C52.912 30.955 53.0158 30.7507 53.1633 30.5796C53.3107 30.4084 53.4975 30.2756 53.7075 30.1923L53.7184 30.188L52.3277 29.029C52.2576 29.4284 52.0442 29.7886 51.7274 30.0418ZM54.6518 29.7454C54.8134 29.6138 54.9436 29.4476 55.0328 29.2592C55.122 29.0708 55.1679 28.8648 55.1673 28.6563V27.582H53.4985C53.3234 27.5822 53.1506 27.6226 52.9935 27.7003C52.8365 27.7779 52.6995 27.8907 52.593 28.0298L54.6518 29.7454ZM59.3606 33.207H54.8926L55.4182 33.7326C55.5485 33.8636 55.7035 33.9675 55.8742 34.0382C56.0449 34.1089 56.2279 34.145 56.4127 34.1445H59.6731L59.3606 33.207ZM59.8548 35.082H56.4127C56.1047 35.0829 55.7997 35.0226 55.5152 34.9048C55.2308 34.787 54.9725 34.6139 54.7553 34.3956L51.4127 31.0529C51.3877 31.3873 51.2431 31.7015 51.0054 31.9381L50.8916 32.0518C50.7606 32.1821 50.6568 32.3371 50.5861 32.5077C50.5154 32.6784 50.4792 32.8614 50.4798 33.0462V36.4883H53.2923V35.745L52.0233 34.476L52.6862 33.8131L54.4807 35.6076C54.611 35.7386 54.766 35.8425 54.9367 35.9132C55.1074 35.9839 55.2904 36.02 55.4752 36.0195H59.8548V35.082ZM59.2274 45.8633H59.8411C59.9157 45.8632 59.9892 45.8453 60.0555 45.8112C60.1218 45.7771 60.1791 45.7276 60.2225 45.667L61.9842 43.2006C62.1267 43.0016 62.3164 42.8412 62.5362 42.7338L60.6106 36.957H55.4752C55.0345 36.958 54.6026 36.8338 54.2298 36.5989V37.8945C54.2299 38.0188 54.2793 38.138 54.3672 38.2258C54.4551 38.3137 54.5742 38.3631 54.6985 38.3633H55.1673C55.7886 38.364 56.3844 38.6111 56.8238 39.0505C57.2631 39.4899 57.5103 40.0856 57.511 40.707V43.5195H57.7454C58.0222 43.5194 58.2945 43.5894 58.537 43.7229C58.7795 43.8564 58.9842 44.0491 59.1321 44.2831C59.2801 44.517 59.3664 44.7846 59.383 45.0609C59.3997 45.3372 59.3462 45.6133 59.2274 45.8633ZM61.261 36.0195C61.3853 36.0195 61.5046 35.9701 61.5925 35.8822C61.6804 35.7943 61.7298 35.6751 61.7298 35.5508C61.7298 35.4265 61.6804 35.3072 61.5925 35.2193C61.5046 35.1314 61.3853 35.082 61.261 35.082H60.7923V36.0195H61.261ZM57.7454 44.457H55.1673V45.1602C55.1675 45.3466 55.2416 45.5253 55.3734 45.6571C55.5052 45.7889 55.684 45.8631 55.8704 45.8633H57.7454C57.9319 45.8633 58.1107 45.7892 58.2426 45.6573C58.3744 45.5255 58.4485 45.3466 58.4485 45.1602C58.4485 44.9737 58.3744 44.7948 58.2426 44.663C58.1107 44.5311 57.9319 44.457 57.7454 44.457ZM56.5735 43.5195V40.707C56.5731 40.3342 56.4248 39.9768 56.1612 39.7131C55.8975 39.4495 55.5401 39.3012 55.1673 39.3008H54.6985C54.3257 39.3004 53.9682 39.1521 53.7046 38.8884C53.441 38.6248 53.2927 38.2674 53.2923 37.8945V37.4258H50.4798V39.7695C50.4799 39.8938 50.5293 40.013 50.6172 40.1008C50.7051 40.1887 50.8242 40.2381 50.9485 40.2383H53.2923C53.7894 40.2388 54.266 40.4366 54.6175 40.7881C54.969 41.1396 55.1667 41.6162 55.1673 42.1133V43.5195H56.5735ZM62.3294 32.2695H60.6867C60.6125 32.2695 60.5393 32.2872 60.4731 32.321C60.407 32.3549 60.3499 32.4039 60.3065 32.4642C60.263 32.5245 60.2346 32.5942 60.2234 32.6676C60.2121 32.741 60.2185 32.816 60.242 32.8865L60.6614 34.1445H61.261C61.6056 34.1445 61.9382 34.271 62.1957 34.5C62.4532 34.7291 62.6176 35.0447 62.6577 35.387C62.6978 35.7292 62.6108 36.0743 62.4133 36.3567C62.2158 36.639 61.9214 36.839 61.5861 36.9187L62.755 40.4252L64.3079 38.8722L63.8336 37.6392C63.7439 37.4055 63.7181 37.152 63.7589 36.905C63.7997 36.6581 63.9057 36.4264 64.0658 36.234L64.5753 35.6226L64.0898 35.3799C63.814 35.2429 63.5681 35.0526 63.3664 34.82C63.1646 34.5874 63.011 34.3171 62.9145 34.0247L62.3294 32.2695ZM65.1214 34.8475C65.2434 34.567 65.2936 34.2605 65.2675 33.9557C65.2415 33.6509 65.14 33.3574 64.9722 33.1017C64.8044 32.8459 64.5756 32.6359 64.3064 32.4906C64.0372 32.3454 63.7361 32.2694 63.4302 32.2695H63.3176L63.8039 33.7283C63.8618 33.9037 63.954 34.0659 64.075 34.2055C64.1961 34.345 64.3436 34.4592 64.5091 34.5414L65.1214 34.8475ZM64.6762 39.8298L63.0864 41.4196L63.4739 42.582H65.7348L64.6762 39.8298ZM65.4798 51.0195C66.0483 51.0197 66.6035 50.8476 67.0722 50.5258C67.5408 50.204 67.9009 49.7476 68.105 49.217C68.309 48.6863 68.3474 48.1063 68.215 47.5534C68.0827 47.0005 67.7858 46.5007 67.3636 46.12L66.4113 45.4852C66.3227 45.426 66.2185 45.3944 66.1119 45.3945H64.5924C64.5066 45.3946 64.4219 45.4152 64.3456 45.4545C64.2692 45.4938 64.2033 45.5507 64.1533 45.6205L62.7313 47.6114C62.6422 48.0218 62.6461 48.4469 62.7428 48.8556C62.8396 49.2642 63.0266 49.646 63.2902 49.9729C63.5539 50.2998 63.8874 50.5635 64.2663 50.7446C64.6452 50.9258 65.0598 51.0197 65.4798 51.0195ZM48.136 51.0195C48.6923 51.0195 49.236 50.8546 49.6986 50.5455C50.1611 50.2365 50.5216 49.7972 50.7344 49.2833C50.9473 48.7694 51.003 48.2039 50.8945 47.6583C50.7859 47.1128 50.5181 46.6116 50.1248 46.2183C49.7314 45.825 49.2303 45.5571 48.6847 45.4486C48.1391 45.3401 47.5736 45.3957 47.0597 45.6086C46.5458 45.8215 46.1065 46.182 45.7975 46.6445C45.4885 47.107 45.3235 47.6508 45.3235 48.207C45.3244 48.9527 45.6209 49.6676 46.1482 50.1948C46.6755 50.7221 47.3903 51.0187 48.136 51.0195ZM43.5691 43.9067L44.1448 44.137C44.4711 44.2662 44.7543 44.4849 44.9619 44.7679C45.1695 45.0508 45.293 45.3867 45.3182 45.7367C45.794 45.1929 46.4168 44.7982 47.1118 44.6003C47.8067 44.4024 48.544 44.4096 49.2349 44.6212C49.9258 44.8327 50.5408 45.2395 51.0058 45.7926C51.4708 46.3456 51.7659 47.0213 51.8557 47.7383H61.2473C61.3219 47.7382 61.3954 47.7203 61.4618 47.6862C61.5281 47.6521 61.5853 47.6026 61.6288 47.542L61.8627 47.2144L61.8635 47.2115L61.8646 47.2118L63.3904 45.0756C63.5273 44.8844 63.7077 44.7286 63.9167 44.6211C64.1257 44.5135 64.3574 44.4573 64.5924 44.457H66.1119C66.4036 44.4568 66.6888 44.5431 66.9313 44.7051L67.9125 45.3593L67.9155 45.3558C67.9235 45.3626 67.9309 45.3699 67.9388 45.3768L68.5393 45.7771C68.603 45.8196 68.6749 45.848 68.7504 45.8605C68.8259 45.873 68.9032 45.8693 68.9772 45.8497C69.0511 45.83 69.1201 45.7949 69.1794 45.7466C69.2388 45.6982 69.2872 45.6378 69.3214 45.5694C69.383 45.446 69.3951 45.3037 69.3551 45.1717C69.3151 45.0397 69.2262 44.928 69.1065 44.8595L66.886 43.5907C66.8044 43.5441 66.7121 43.5196 66.6182 43.5195H63.1862C63.1003 43.5196 63.0157 43.5402 62.9393 43.5795C62.8629 43.6188 62.797 43.6757 62.747 43.7455L60.9854 46.2119C60.8551 46.3939 60.6834 46.5422 60.4844 46.6446C60.2854 46.747 60.0649 46.8005 59.8411 46.8008H55.8704C55.4354 46.8003 55.0184 46.6273 54.7108 46.3197C54.4033 46.0121 54.2302 45.5951 54.2298 45.1602V43.0508H42.9799C42.9822 43.2358 43.0394 43.416 43.1443 43.5684C43.2492 43.7208 43.3971 43.8385 43.5691 43.9067ZM54.2298 42.1133C54.2295 41.8647 54.1306 41.6264 53.9549 41.4507C53.7791 41.2749 53.5408 41.1761 53.2923 41.1758H43.9173C43.6687 41.1761 43.4304 41.2749 43.2547 41.4507C43.0789 41.6264 42.98 41.8647 42.9798 42.1133H54.2298ZM42.9798 39.7695C42.9799 39.8938 43.0293 40.013 43.1172 40.1008C43.2051 40.1887 43.3242 40.2381 43.4485 40.2383H49.0735C49.1978 40.2381 49.3169 40.1887 49.4048 40.1008C49.4927 40.013 49.5421 39.8938 49.5423 39.7695V34.6133H42.9798V39.7695ZM42.9798 33.6758H49.5423V33.207C49.5421 33.0828 49.4927 32.9636 49.4048 32.8757C49.3169 32.7879 49.1978 32.7384 49.0735 32.7383H43.4485C43.3242 32.7384 43.2051 32.7879 43.1172 32.8757C43.0293 32.9636 42.9799 33.0828 42.9798 33.207V33.6758Z" fill="black"/>
<path d="M43.9172 29.457H47.6672V30.3945H43.9172V29.457Z" fill="black"/>
<path d="M42.9797 27.582H46.7297V28.5195H42.9797V27.582Z" fill="black"/>
<path d="M42.0422 25.707H44.8547V26.6445H42.0422V25.707Z" fill="black"/>
<path d="M48.136 46.8008C48.4141 46.8008 48.686 46.8833 48.9173 47.0378C49.1485 47.1923 49.3288 47.4119 49.4352 47.6689C49.5416 47.9258 49.5695 48.2086 49.5152 48.4814C49.461 48.7542 49.327 49.0047 49.1304 49.2014C48.9337 49.3981 48.6831 49.532 48.4103 49.5863C48.1375 49.6405 47.8548 49.6127 47.5978 49.5062C47.3409 49.3998 47.1213 49.2196 46.9667 48.9883C46.8122 48.757 46.7297 48.4852 46.7297 48.207C46.7302 47.8342 46.8785 47.4768 47.1421 47.2131C47.4057 46.9495 47.7632 46.8012 48.136 46.8008ZM48.136 48.6758C48.2287 48.6758 48.3193 48.6483 48.3964 48.5968C48.4735 48.5453 48.5336 48.4721 48.5691 48.3864C48.6045 48.3008 48.6138 48.2065 48.5957 48.1156C48.5776 48.0247 48.533 47.9411 48.4674 47.8756C48.4019 47.81 48.3184 47.7654 48.2274 47.7473C48.1365 47.7292 48.0423 47.7385 47.9566 47.774C47.871 47.8094 47.7977 47.8695 47.7462 47.9466C47.6947 48.0237 47.6672 48.1143 47.6672 48.207C47.6674 48.3313 47.7168 48.4505 47.8047 48.5383C47.8926 48.6262 48.0117 48.6756 48.136 48.6758Z" fill="black"/>
<path d="M50.9485 25.707H51.886V26.6445H50.9485V25.707Z" fill="black"/>
<path d="M43.9172 38.3633C43.9179 37.8232 44.1048 37.2999 44.4464 36.8816C44.7879 36.4632 45.2632 36.1754 45.7922 36.0667V35.5508H46.7297V36.0667C47.2587 36.1754 47.7341 36.4632 48.0756 36.8816C48.4172 37.2999 48.604 37.8232 48.6047 38.3633V39.3008H43.9172V38.3633ZM47.6672 38.3633C47.6672 37.9903 47.5191 37.6326 47.2554 37.3689C46.9916 37.1052 46.6339 36.957 46.261 36.957C45.888 36.957 45.5303 37.1052 45.2666 37.3689C45.0029 37.6326 44.8547 37.9903 44.8547 38.3633H47.6672Z" fill="black"/>
</g>
<path d="M15.8967 63.9785C15.2807 63.9785 14.7287 63.8785 14.2407 63.6785C13.7527 63.4785 13.3607 63.1825 13.0647 62.7905C12.7767 62.3985 12.6247 61.9265 12.6087 61.3745H14.7927C14.8247 61.6865 14.9327 61.9265 15.1167 62.0945C15.3007 62.2545 15.5407 62.3345 15.8367 62.3345C16.1407 62.3345 16.3807 62.2665 16.5567 62.1305C16.7327 61.9865 16.8207 61.7905 16.8207 61.5425C16.8207 61.3345 16.7487 61.1625 16.6047 61.0265C16.4687 60.8905 16.2967 60.7785 16.0887 60.6905C15.8887 60.6025 15.6007 60.5025 15.2247 60.3905C14.6807 60.2225 14.2367 60.0545 13.8927 59.8865C13.5487 59.7185 13.2527 59.4705 13.0047 59.1425C12.7567 58.8145 12.6327 58.3865 12.6327 57.8585C12.6327 57.0745 12.9167 56.4625 13.4847 56.0225C14.0527 55.5745 14.7927 55.3505 15.7047 55.3505C16.6327 55.3505 17.3807 55.5745 17.9487 56.0225C18.5167 56.4625 18.8207 57.0785 18.8607 57.8705H16.6407C16.6247 57.5985 16.5247 57.3865 16.3407 57.2345C16.1567 57.0745 15.9207 56.9945 15.6327 56.9945C15.3847 56.9945 15.1847 57.0625 15.0327 57.1985C14.8807 57.3265 14.8047 57.5145 14.8047 57.7625C14.8047 58.0345 14.9327 58.2465 15.1887 58.3985C15.4447 58.5505 15.8447 58.7145 16.3887 58.8905C16.9327 59.0745 17.3727 59.2505 17.7087 59.4185C18.0527 59.5865 18.3487 59.8305 18.5967 60.1505C18.8447 60.4705 18.9687 60.8825 18.9687 61.3865C18.9687 61.8665 18.8447 62.3025 18.5967 62.6945C18.3567 63.0865 18.0047 63.3985 17.5407 63.6305C17.0767 63.8625 16.5287 63.9785 15.8967 63.9785ZM29.4835 57.1985L27.6715 63.8945H25.4035L24.3475 59.5505L23.2555 63.8945H20.9995L19.1755 57.1985H21.2275L22.1755 61.9865L23.3035 57.1985H25.4755L26.6155 61.9625L27.5515 57.1985H29.4835ZM30.9381 56.5025C30.5781 56.5025 30.2821 56.3985 30.0501 56.1905C29.8261 55.9745 29.7141 55.7105 29.7141 55.3985C29.7141 55.0785 29.8261 54.8145 30.0501 54.6065C30.2821 54.3905 30.5781 54.2825 30.9381 54.2825C31.2901 54.2825 31.5781 54.3905 31.8021 54.6065C32.0341 54.8145 32.1501 55.0785 32.1501 55.3985C32.1501 55.7105 32.0341 55.9745 31.8021 56.1905C31.5781 56.3985 31.2901 56.5025 30.9381 56.5025ZM31.9581 57.1985V63.8945H29.9061V57.1985H31.9581ZM36.8171 62.1545V63.8945H35.7731C35.0291 63.8945 34.4491 63.7145 34.0331 63.3545C33.6171 62.9865 33.4091 62.3905 33.4091 61.5665V58.9025H32.5931V57.1985H33.4091V55.5665H35.4611V57.1985H36.8051V58.9025H35.4611V61.5905C35.4611 61.7905 35.5091 61.9345 35.6051 62.0225C35.7011 62.1105 35.8611 62.1545 36.0851 62.1545H36.8171ZM37.1921 60.5465C37.1921 59.8505 37.3321 59.2425 37.6121 58.7225C37.9001 58.2025 38.2961 57.8025 38.8001 57.5225C39.3121 57.2425 39.8961 57.1025 40.5521 57.1025C41.3921 57.1025 42.0921 57.3225 42.6521 57.7625C43.2201 58.2025 43.5921 58.8225 43.7681 59.6225H41.5841C41.4001 59.1105 41.0441 58.8545 40.5161 58.8545C40.1401 58.8545 39.8401 59.0025 39.6161 59.2985C39.3921 59.5865 39.2801 60.0025 39.2801 60.5465C39.2801 61.0905 39.3921 61.5105 39.6161 61.8065C39.8401 62.0945 40.1401 62.2385 40.5161 62.2385C41.0441 62.2385 41.4001 61.9825 41.5841 61.4705H43.7681C43.5921 62.2545 43.2201 62.8705 42.6521 63.3185C42.0841 63.7665 41.3841 63.9905 40.5521 63.9905C39.8961 63.9905 39.3121 63.8505 38.8001 63.5705C38.2961 63.2905 37.9001 62.8905 37.6121 62.3705C37.3321 61.8505 37.1921 61.2425 37.1921 60.5465ZM48.6218 57.1265C49.3898 57.1265 50.0058 57.3825 50.4698 57.8945C50.9338 58.3985 51.1658 59.0945 51.1658 59.9825V63.8945H49.1258V60.2585C49.1258 59.8105 49.0098 59.4625 48.7778 59.2145C48.5458 58.9665 48.2338 58.8425 47.8418 58.8425C47.4498 58.8425 47.1378 58.9665 46.9058 59.2145C46.6738 59.4625 46.5578 59.8105 46.5578 60.2585V63.8945H44.5058V55.0145H46.5578V58.0985C46.7658 57.8025 47.0498 57.5665 47.4098 57.3905C47.7698 57.2145 48.1738 57.1265 48.6218 57.1265ZM55.3877 55.4705C56.2757 55.4705 57.0517 55.6465 57.7157 55.9985C58.3797 56.3505 58.8917 56.8465 59.2517 57.4865C59.6197 58.1185 59.8037 58.8505 59.8037 59.6825C59.8037 60.5065 59.6197 61.2385 59.2517 61.8785C58.8917 62.5185 58.3757 63.0145 57.7037 63.3665C57.0397 63.7185 56.2677 63.8945 55.3877 63.8945H52.2317V55.4705H55.3877ZM55.2557 62.1185C56.0317 62.1185 56.6357 61.9065 57.0677 61.4825C57.4997 61.0585 57.7157 60.4585 57.7157 59.6825C57.7157 58.9065 57.4997 58.3025 57.0677 57.8705C56.6357 57.4385 56.0317 57.2225 55.2557 57.2225H54.2837V62.1185H55.2557ZM66.9025 60.4385C66.9025 60.6305 66.8905 60.8305 66.8665 61.0385H62.2225C62.2545 61.4545 62.3865 61.7745 62.6185 61.9985C62.8585 62.2145 63.1505 62.3225 63.4945 62.3225C64.0065 62.3225 64.3625 62.1065 64.5625 61.6745H66.7465C66.6345 62.1145 66.4305 62.5105 66.1345 62.8625C65.8465 63.2145 65.4825 63.4905 65.0425 63.6905C64.6025 63.8905 64.1105 63.9905 63.5665 63.9905C62.9105 63.9905 62.3265 63.8505 61.8145 63.5705C61.3025 63.2905 60.9025 62.8905 60.6145 62.3705C60.3265 61.8505 60.1825 61.2425 60.1825 60.5465C60.1825 59.8505 60.3225 59.2425 60.6025 58.7225C60.8905 58.2025 61.2905 57.8025 61.8025 57.5225C62.3145 57.2425 62.9025 57.1025 63.5665 57.1025C64.2145 57.1025 64.7905 57.2385 65.2945 57.5105C65.7985 57.7825 66.1905 58.1705 66.4705 58.6745C66.7585 59.1785 66.9025 59.7665 66.9025 60.4385ZM64.8025 59.8985C64.8025 59.5465 64.6825 59.2665 64.4425 59.0585C64.2025 58.8505 63.9025 58.7465 63.5425 58.7465C63.1985 58.7465 62.9065 58.8465 62.6665 59.0465C62.4345 59.2465 62.2905 59.5305 62.2345 59.8985H64.8025ZM69.677 55.0145V63.8945H67.625V55.0145H69.677ZM71.836 56.5025C71.476 56.5025 71.18 56.3985 70.948 56.1905C70.724 55.9745 70.612 55.7105 70.612 55.3985C70.612 55.0785 70.724 54.8145 70.948 54.6065C71.18 54.3905 71.476 54.2825 71.836 54.2825C72.188 54.2825 72.476 54.3905 72.7 54.6065C72.932 54.8145 73.048 55.0785 73.048 55.3985C73.048 55.7105 72.932 55.9745 72.7 56.1905C72.476 56.3985 72.188 56.5025 71.836 56.5025ZM72.856 57.1985V63.8945H70.804V57.1985H72.856ZM76.9951 61.9745L78.4471 57.1985H80.6311L78.2551 63.8945H75.7231L73.3471 57.1985H75.5431L76.9951 61.9745ZM87.4468 60.4385C87.4468 60.6305 87.4348 60.8305 87.4108 61.0385H82.7668C82.7988 61.4545 82.9308 61.7745 83.1628 61.9985C83.4028 62.2145 83.6948 62.3225 84.0388 62.3225C84.5508 62.3225 84.9068 62.1065 85.1068 61.6745H87.2908C87.1788 62.1145 86.9748 62.5105 86.6788 62.8625C86.3908 63.2145 86.0268 63.4905 85.5868 63.6905C85.1468 63.8905 84.6548 63.9905 84.1108 63.9905C83.4548 63.9905 82.8708 63.8505 82.3588 63.5705C81.8468 63.2905 81.4468 62.8905 81.1588 62.3705C80.8708 61.8505 80.7268 61.2425 80.7268 60.5465C80.7268 59.8505 80.8668 59.2425 81.1468 58.7225C81.4348 58.2025 81.8348 57.8025 82.3468 57.5225C82.8588 57.2425 83.4468 57.1025 84.1108 57.1025C84.7588 57.1025 85.3348 57.2385 85.8388 57.5105C86.3428 57.7825 86.7348 58.1705 87.0148 58.6745C87.3028 59.1785 87.4468 59.7665 87.4468 60.4385ZM85.3468 59.8985C85.3468 59.5465 85.2268 59.2665 84.9868 59.0585C84.7468 58.8505 84.4468 58.7465 84.0868 58.7465C83.7428 58.7465 83.4508 58.8465 83.2108 59.0465C82.9788 59.2465 82.8348 59.5305 82.7788 59.8985H85.3468ZM90.2214 58.3145C90.4614 57.9465 90.7614 57.6585 91.1214 57.4505C91.4814 57.2345 91.8814 57.1265 92.3214 57.1265V59.2985H91.7574C91.2454 59.2985 90.8614 59.4105 90.6054 59.6345C90.3494 59.8505 90.2214 60.2345 90.2214 60.7865V63.8945H88.1694V57.1985H90.2214V58.3145ZM99.7822 57.1985L95.5822 67.0745H93.3742L94.9102 63.6665L92.1862 57.1985H94.4782L96.0262 61.3865L97.5622 57.1985H99.7822Z" fill="black"/>
</g>
<defs>
<filter id="filter0_d_4880_197" x="-1.89526" y="-3.10547" width="123.072" height="113.425" filterUnits="userSpaceOnUse" color-interpolation-filters="sRGB">
<feFlood flood-opacity="0" result="BackgroundImageFix"/>
<feColorMatrix in="SourceAlpha" type="matrix" values="0 0 0 0 0 0 0 0 0 0 0 0 0 0 0 0 0 0 127 0" result="hardAlpha"/>
<feOffset/>
<feGaussianBlur stdDeviation="5"/>
<feComposite in2="hardAlpha" operator="out"/>
<feColorMatrix type="matrix" values="0 0 0 0 0.996078 0 0 0 0 0.87451 0 0 0 0 0.713726 0 0 0 1 0"/>
<feBlend mode="normal" in2="BackgroundImageFix" result="effect1_dropShadow_4880_197"/>
<feBlend mode="normal" in="SourceGraphic" in2="effect1_dropShadow_4880_197" result="shape"/>
</filter>
<clipPath id="clip0_4880_197">
<rect width="30" height="30" fill="white" transform="matrix(-1 0 0 1 71.1047 22.8945)"/>
</clipPath>
</defs>
</svg>
